<svg version="1.1" viewBox="0 0 128 128" xmlns="http://www.w3.org/2000/svg"><path d="m86.38 21.38c-3.459 0.1335-7.121 1.557-9.766 3.795l-67.75 56.77c-6.155 5.29-6.508 14.7-0.8125 20.4 5.036 5.036 13.02 5.492 18.56 1.016l6.562-5.188c17.5-18.16 46.59-38.4 73.71-30.93 6.307 1.78 10.78 5.441 13.68 9.816l-25.64-51.73c-1.831-2.925-5.086-4.081-8.545-3.947zm6.24 47.36c-19.88 0.01555-39.85 11.79-59.85 33.78 0 0 45.47-16.63 72.74 5.137 18.26 14.6 29.96-28.99 0.8652-37.03-4.578-1.268-9.162-1.89-13.75-1.887z"/></svg>
