<svg width="128" height="128" version="1.1" viewBox="0 0 128 128" xmlns="http://www.w3.org/2000/svg"><path d="m58.62 2.672-55.94 55.89a7.672 7.672 0 0 0 0 10.87l55.94 55.89a7.684 7.684 0 0 0 10.87 0l23.46-23.44a6.891 6.891 0 0 0 0-9.746 6.9 6.9 0 0 0-9.754 0l-17.78 17.76c-0.75 0.75-1.888 0.75-2.634 0l-44.68-44.63c-0.747-0.75-0.747-1.886 0-2.632l44.68-44.64c0.746-0.746 1.883-0.746 2.633 0l17.78 17.76a6.9 6.9 0 0 0 9.754 0 6.891 6.891 0 0 0 0-9.746l-23.45-23.43c-3.02-2.938-7.879-2.914-10.88 0.078z" fill="#0c68ff"/><path d="m98.36 86.94a6.9 6.9 0 0 0 9.753 0l17.3-17.28a7.667 7.667 0 0 0 0-10.86l-17.45-17.38a6.91 6.91 0 0 0-9.762 0.012 6.884 6.884 0 0 0 0 9.746l11.79 11.78a1.826 1.826 0 0 1 0 2.629l-11.63 11.62a6.88 6.88 0 0 0 0 9.742z" fill="#f62838"/><path d="m79.44 64.28c0-8.336-6.762-15.09-15.11-15.09-8.34 0-15.1 6.758-15.1 15.09 0 8.332 6.765 15.09 15.1 15.09 8.344 0 15.11-6.758 15.11-15.09z" fill="#f62c3c" fill-rule="evenodd"/></svg>
