<svg version="1.1" viewBox="0 0 128 128" xmlns="http://www.w3.org/2000/svg"><path d="m12 0v80c15-0.008049 30 0.01616 45-0.01222 10.61-0.1989 21.02-4.911 28.21-12.71 8.036-8.546 12.02-20.74 10.47-32.38-1.387-11.44-8.068-22.06-17.71-28.34-6.83-4.537-15.08-6.799-23.26-6.563h-42.7zm90.81 62.49c-6.223 13.05-18.11 23.26-31.98 27.35-5.476 1.675-11.23 2.284-16.94 2.159h-41.89v36c20.26-0.00488 40.52 0.00978 60.77-0.00736 11.04-0.1415 21.87-5.168 29.15-13.46 7.102-7.919 10.77-18.76 9.975-29.36-0.5591-8.268-3.787-16.32-9.095-22.68z"/></svg>
