<svg version="1.1" viewBox="0 0 128 128" xmlns="http://www.w3.org/2000/svg"><path d="m61.18 0.7793-3.24 0.2598c-32.38 2.602-57.94 29.86-57.94 62.96 0 33.1 25.55 60.36 57.94 62.96l3.24 0.2598v-12.1l-2.734-0.2441c-25.96-2.312-46.41-24.24-46.41-50.9 0-26.67 20.44-48.56 46.41-50.88l2.736-0.2422-0.001953-12.07zm3.648 0v12.07l2.734 0.2422c25.96 2.311 46.41 24.24 46.41 50.91 0 26.67-20.45 48.6-46.41 50.91l-2.736 0.2422v12.07l3.24-0.2598c32.38-2.604 57.94-29.86 57.94-62.96 0-33.1-25.55-60.36-57.94-62.96l-3.24-0.2598zm-12.8 42.91v35.61h5.367v-35.61h-5.367zm19.27 0.6055c-0.995 0-1.749 0.2712-2.262 0.7852-0.512 0.514-0.7832 1.239-0.7832 2.207 0 0.906 0.2402 1.632 0.7832 2.176 0.542 0.514 1.299 0.7852 2.264 0.7852 0.934 0 1.687-0.2712 2.199-0.7852 0.513-0.544 0.7832-1.27 0.7832-2.176 0-0.937-0.2702-1.693-0.7832-2.207-0.512-0.514-1.266-0.7852-2.201-0.7852zm-35.31 9.219c-3.95 0-6.934 1.148-9.014 3.445-2.081 2.297-3.107 5.562-3.107 9.824 0 4.172 0.9963 7.374 2.986 9.611s4.883 3.355 8.713 3.355c1.538 0 2.865-0.1216 3.951-0.3926 1.085-0.243 2.109-0.635 3.074-1.209v-4.686c-2.141 1.179-4.401 1.783-6.783 1.783-2.111 0-3.71-0.7265-4.795-2.146-1.085-1.451-1.627-3.567-1.627-6.408 0-5.803 2.171-8.705 6.543-8.705 1.477 0 3.345 0.4531 5.607 1.33l1.627-4.322c-2.111-0.997-4.523-1.48-7.176-1.48zm57.23 0.03125c-3.015 0-5.365 0.5713-7.115 1.781-1.748 1.209-2.623 2.872-2.623 5.049 0 1.783 0.5121 3.264 1.537 4.383 1.025 1.118 3.015 2.267 5.91 3.385 1.507 0.574 2.654 1.089 3.498 1.543 0.844 0.453 1.447 0.9061 1.809 1.33 0.362 0.422 0.543 0.9666 0.543 1.602 0 1.995-1.658 2.992-4.945 2.992-2.563 0-5.337-0.6947-8.291-2.055v4.654c2.05 1.027 4.732 1.541 8.109 1.541 3.347 0 5.909-0.6348 7.719-1.965 1.779-1.33 2.684-3.204 2.684-5.062s-0.2404-2.917-0.6934-3.764c-0.482-0.877-1.176-1.661-2.111-2.326-0.965-0.665-2.473-1.391-4.553-2.207-2.472-0.967-4.1-1.724-4.824-2.268-0.753-0.575-1.115-1.239-1.115-2.025 0-1.602 1.418-2.418 4.252-2.418 1.869 0 4.16 0.5734 6.873 1.691l1.75-4.049c-2.653-1.209-5.457-1.812-8.412-1.812zm-24.63 0.4238v28.26c0 2.6-1.147 3.9-3.438 3.9-1.069-0.002791-2.134-0.1458-3.166-0.4238v4.262c1.055 0.393 2.412 0.5737 4.492 0.5742 2.08 5e-4 4.041-0.6634 5.428-2.023 1.356-1.33 2.051-3.326 2.051-5.926v-28.62h-5.367z"/></svg>
