<svg width="128" height="128" version="1.1" viewBox="0 0 128 128" xmlns="http://www.w3.org/2000/svg"><path d="m17.44 6.434c-2.171 0.4727-1.047 3.211-1.788 4.711-1.508 6.297-7.651 11.14-14.14 11.05-2.144-0.1335-1.657 3.006 0.3353 2.609 6.694 0.02981 12.9 5.362 14 11.96 0.1725 1.383 0.002265 4.625 2.281 3.614 1.086-1.238 0.3327-3.135 1.001-4.596 1.527-6.121 7.383-10.85 13.71-10.96 1.968 0.5202 2.63-2.37 0.5628-2.664-3.137 0.2079-6.294-1.001-8.812-2.853-3.665-2.653-5.892-7.074-5.927-11.59 0.06251-0.672-0.5714-1.261-1.22-1.273zm94.43 18.07c-9.492-0.06619-18.69 2.764-27.54 5.91-11.07-6.14-24.91-6.257-36.45-1.335-7.448 3.122-13.98 8.437-18.38 15.22-4.732 6.837-6.872 15.16-7.391 23.37-7.044 6.433-13.79 13.52-18.04 22.16-2.022 4.213-3.445 9.186-1.862 13.78 1.386 3.725 5.024 6.12 8.766 7.026 6.83 1.841 13.97 0.5902 20.78-0.6916 2.532-0.5624 5.032-1.276 7.539-1.939 2.113-0.7514 4.226-1.503 6.339-2.254 10.41 5.211 22.98 5.99 33.88 1.861 12.43-4.48 22.43-15.17 25.95-27.92 1.029-3.635 1.559-7.412 1.557-11.19 7.309-6.804 14.64-14.03 18.94-23.19 1.865-4.075 2.956-8.979 1.032-13.24-1.812-4.127-6.183-6.495-10.48-7.149-1.529-0.2724-3.081-0.3961-4.632-0.424zm-31.61 7.256h4.02c10.61 5.691 18.43 16.29 20.74 28.11-0.4632 1.999-1.905 3.933-4.06 4.219-2.447 0.319-4.927 0.07008-7.39 0.1467-8.861-0.02062-17.72 0.05358-26.58-0.04085-5.554-0.4102-10.39-5.322-10.57-10.92-0.3442-5.45 3.714-10.78 9.086-11.84 2.356-0.4944 4.776-0.1784 7.155-0.3146 0.5219-1.216-0.4845-2.862 0.3857-4.185 0.9782-3.024 4.026-5.25 7.217-5.179zm30.89 0.3496c2.866 0.0774 6.138 0.1912 8.317 2.311 1.405 1.82 0.7253 4.311 0.04532 6.284-2.168 5.759-6.223 10.54-10.32 15.03-1.028 1.092-2.084 2.159-3.152 3.212-1.926-8.969-6.879-17.26-13.87-23.2 6.141-1.97 12.49-3.558 18.97-3.631zm-87 28.37c3.967 0.02148 7.937-0.04516 11.9 0.03758 5.38 0.4506 10.06 5.311 10.04 10.75 0.1152 1.139-0.8983 3.4 1.059 2.824 3.755-0.07778 7.549 1.693 9.638 4.861 2.57 3.647 2.629 8.87-0.01615 12.49-2.347 3.302-6.48 5.147-10.5 4.827h-11.49c-8.959-9.319-13.25-23.08-10.63-35.8zm59.53 12.34h5.793c-2.793 1.958-5.512 4.024-8.355 5.908-2.292 1.464-4.584 2.928-6.875 4.393-0.8132-5.257 3.924-10.34 9.166-10.3zm18.15 0h3.73c-1.47 11.99-8.313 23.45-18.71 29.78-1.741 0.9174-3.493 2.152-5.451 2.424-2.837 0.03542-5.916 0.2394-8.382-1.443-2.827-1.755-4.627-5.103-4.388-8.44 11.73-6.376 22.94-13.75 33.2-22.32zm4.838 0c0.07472 0.931-0.3015 1.396 0 0zm-0.1524 1.469c-0.1858 1.542-0.8892 4.495-1.108 5.135 0.4652-1.693 0.8171-3.405 1.108-5.135zm-83.17 2.605c0.5407 2.034 0.988 4.097 1.802 6.045l0.6259 1.707c-0.4572-0.9743 0.8198 1.966 1.132 2.475 2.551 5.1 6.204 9.626 10.55 13.3-7.02 2.156-14.32 4.103-21.73 3.615-2.283-0.1996-4.988-0.7398-6.24-2.876-1.131-2.437-0.01759-5.174 1.001-7.447 2.936-6.116 7.577-11.19 12.27-16 0.5158-0.7736 0.7129-0.4454 0.7964 0.3245-0.06494-0.3829-0.1728-0.7583-0.2151-1.145zm2.16 7.141c-0.2815-0.6618-0.8672-2.241-0.2589-0.6402l0.1282 0.3206zm79.75-4.047c-0.5333 1.788-1.183 3.542-1.953 5.242 0.7423-1.715 1.392-3.459 1.953-5.242zm-2.373 6.109c-0.6081 1.279-1.565 3.048-2.175 3.915 0.6926-1.323 1.442-2.615 2.175-3.915zm-76.27 0.3691c0.5885 1.077 1.177 2.155 1.766 3.232-0.6379-1.05-1.224-2.13-1.766-3.232zm72.91 5.4c-0.3867 0.577-1.623 2.208-1.558 2.053 0.5126-0.6892 1.036-1.37 1.558-2.053zm-69.16 0.7949c0.4254 0.5654 0.7338 0.9862 0 0zm78.23 9.67c-1.515 1.295-0.6006 3.736-2.006 5.197-1.564 2.62-4.564 4.326-7.62 4.282-1.873 0.7944 0.7019 2.038 1.723 1.665 3.98 0.7074 7.217 4.488 7.136 8.557 0.8193 1.901 2.041-0.6102 1.701-1.679 0.7599-4.017 4.65-7.143 8.735-7.042 1.587-0.598-0.2672-2.099-1.324-1.582-4.152-0.5236-7.637-4.377-7.572-8.592-0.02825-0.4082-0.307-0.8572-0.7729-0.807z"/></svg>
