<svg version="1.1" viewBox="0 0 128 128" xmlns="http://www.w3.org/2000/svg"><path d="m73.16 5.484-11.69 9.701-55.98-8.869v53.18l14.07 11.22-13.06 39.27 78.07 12.53 5.973-21.59h-33.07c-2.47e-4 0.00105 2.36e-4 0.00285 0 0.00391l-0.003906-0.00391h-30.54c-5e-6 -24.72 0-49.43 0-74.15h74.14v65.57l5.973 2.053 1.68-14.81 13.79-8.014-7.461-47.91zm-45.23 22.29v72.15h72.14v-72.15zm53.48 8.48c3.782 0.1704 7.412 1.629 10.27 4.162l-4.191 5.061c-2.132-2.024-4.975-3.129-7.914-3.074-4.875 0-8.703 4.294-8.703 9.439v0.08203c0 5.535 3.816 9.609 9.18 9.609 2.234 0.07294 4.434-0.5591 6.289-1.807v-4.34h-6.703v-5.752h13.15v13.15c-3.589 3.114-8.186 4.822-12.94 4.805-9.433 0-15.92-6.645-15.95-15.53-0.03319-8.887 7.132-15.97 15.88-15.8 0.5675-0.03426 1.145-0.01169 1.631-0.005859zm-34.75 0.5273c9.508 0 16.09 6.537 16.09 15.11 0 8.57-6.586 15.17-16.09 15.17h-11.81v-30.28zm-5.156 6.012v18.29h5.156c5.124 0.2971 9.374-3.916 9.379-9.108 0.004884-5.192-4.235-9.436-9.379-9.179zm-7.352 43.9h27.43v4.57h-27.43z"/></svg>
