<svg version="1.1" viewBox="0 0 128 128" xmlns="http://www.w3.org/2000/svg"><path d="m64.08 9c-3.897-1.248e-4 -7.057 3.159-7.057 7.057-1.25e-4 3.897 3.159 7.057 7.057 7.057 2.625-4.93e-4 5.032-1.458 6.25-3.783 10.18 5.802 17.67 25.06 17.67 47.46 0.0669 8.947-1.207 17.85-3.779 26.42-0.5056 1.829 2.181 2.67 2.809 0.8789h-0.0293c2.66-8.854 3.978-18.06 3.91-27.3 0-23.78-8.111-44.34-19.78-50.39 0.006079-0.1151 0.009335-0.2304 0.009766-0.3457 1.25e-4 -3.897-3.159-7.057-7.057-7.057zm0 2.977c2.253 2.25e-4 4.08 1.827 4.08 4.08-2.25e-4 2.253-1.827 4.08-4.08 4.08-2.253-2.25e-4 -4.08-1.827-4.08-4.08 2.24e-4 -2.253 1.827-4.08 4.08-4.08zm-25.16 19.72c-9.467 0.03469-16.7 3.053-20.1 8.963-3.38 5.85-2.41 13.61 2.34 21.9a1.476 1.476 0 0 0 2.561-1.471c-4.28-7.47-5.122-14.17-2.352-19 3.76-6.51 13.89-8.999 27.17-6.539a1.474 1.474 0 1 0 0.5312-2.9v0.009765c-3.592-0.655-6.997-0.9745-10.15-0.9629zm50.62 0.08203a1.476 1.476 0 0 0 0 2.951c8.4 0.11 14.45 2.729 17.18 7.449 3.75 6.5 0.8189 16.47-7.871 26.74a1.473 1.473 0 0 0 2.25 1.9l-0.03906-0.009765c9.41-11.11 12.69-22.29 8.17-30.11-3.32-5.76-10.35-8.8-19.69-8.92zm-12.65 1.34v0.03125a92 92 0 0 0-26.25 10.4c-20.96 12.13-34.82 29.8-33.75 42.98a7.056 7.056 0 0 0-3.572 6.117 7.056 7.056 0 0 0 7.057 7.057 7.056 7.056 0 0 0 7.057-7.057 7.056 7.056 0 0 0-7.057-7.057 7.056 7.056 0 0 0-0.5078 0.03711c-0.5006-11.72 12.52-28.13 32.24-39.52a89.07 89.07 0 0 1 25.4-10.11 1.473 1.473 0 1 0-0.6191-2.881zm-12.95 28.57c-2.867 0.03652-5.195 2.471-5.016 5.41 0.1913 3.135 3.144 5.355 6.209 4.666 2.736-0.6128 4.464-3.319 3.869-6.059-0.4699-2.162-2.28-3.775-4.482-3.992-0.1954-0.01944-0.3889-0.02783-0.5801-0.02539zm-34.15 8.449a1.479 1.479 0 0 0-1.152 2.477v-0.009766a92.2 92.2 0 0 0 22 17.34c20.24 11.66 41.72 15.06 53.02 8.406a7.056 7.056 0 0 0 4.031 1.281 7.056 7.056 0 0 0 7.057-7.057 7.056 7.056 0 0 0-7.057-7.057 7.056 7.056 0 0 0-7.057 7.057 7.056 7.056 0 0 0 0.9746 3.547c-10.35 5.58-30.48 2.288-49.53-8.736a89.27 89.27 0 0 1-21.26-16.77 1.479 1.479 0 0 0-1.027-0.4766zm77.9 18.36a4.08 4.08 0 0 1 4.08 4.08 4.08 4.08 0 0 1-4.08 4.08 4.08 4.08 0 0 1-4.08-4.08 4.08 4.08 0 0 1 4.08-4.08zm-87.31 0.06836a4.08 4.08 0 0 1 4.08 4.08 4.08 4.08 0 0 1-4.08 4.08 4.08 4.08 0 0 1-4.08-4.08 4.08 4.08 0 0 1 4.08-4.08zm23.14 6.221c-0.191-0.01026-0.3869 0.01694-0.5781 0.08594-0.7647 0.2762-1.161 1.12-0.8848 1.885l-0.05078 0.01953c5 13.73 13 22.22 22.05 22.22 6.6 0 12.7-4.5 17.46-12.42 1.082-1.68-1.463-3.281-2.51-1.58-4.28 7.12-9.529 11-14.94 11-7.52 0-14.69-7.54-19.24-20.24-0.2072-0.5735-0.7337-0.9399-1.307-0.9707z"/></svg>
