<svg version="1.1" viewBox="0 0 128 128" xmlns="http://www.w3.org/2000/svg"><path d="m38.3 5.484-32.82 50.2 9.496 23.06-9.496 21.05 43.84 22.71 12.33-12.72c7.52e-4 4.6e-4 36.99 12.72 36.99 12.72l23.87-40.84-13.95-30.92 13.95-20.42-21.45 5.094v65.65h-74.14v-74.14h58.34l-4.92-21.45zm-10.37 22.45v72.14h72.14v-72.14zm21.74 8.635c3.768 0.1712 7.384 1.622 10.24 4.139l-4.18 5.047c-2.12-2.026-4.954-3.134-7.887-3.082-4.875 0-8.711 3.768-8.668 9.629 0 5.363 3.793 9.41 9.145 9.41 2.217 0.066 4.402-0.5704 6.238-1.816v-4.34h-6.68v-5.727h13.08v13.09c-3.575 3.102-8.153 4.805-12.89 4.793-9.375 0-15.84-6.598-15.84-15.52 0.1091-4.412 2.101-8.617 4.633-11.18 2.978-2.922 7.008-4.52 11.18-4.434 0.5427-0.02838 1.085-0.03032 1.623-0.005859zm30.17-0.0222c9.3 0 15.98 6.938 15.99 15.67 0.007072 8.731-7.272 15.8-16.07 15.53-9.313-0.06-15.99-6.995-15.99-15.58-0.03924-4.252 2.175-8.671 4.758-11.25 3.029-2.925 7.112-4.501 11.32-4.371zm-0.08984 6.126c-2.455-0.007425-4.807 0.9839-6.516 2.746-1.707 1.764-2.621 4.148-2.617 6.619 0.004086 2.471 0.9251 4.96 2.648 6.748 1.723 1.789 4.098 2.801 6.582 2.805 2.461 0.004691 4.817-0.9957 6.523-2.77 1.707-1.774 2.614-4.169 2.599-6.678-0.01439-2.508-0.9417-4.906-2.662-6.682-1.719-1.778-4.085-2.784-6.559-2.789zm-45.46 44.19h27.43v4.574h-27.43z"/></svg>
