<svg version="1.1" viewBox="0 0 128 128" xmlns="http://www.w3.org/2000/svg"><path d="m64.5 14.4c-4.31 0.0131-8.652 0.6387-12.9 1.904-15.01 4.473-26.56 16.36-30.82 31.43-6.152 4.022-10.96 9.904-13.48 16.97-4.8 13.6-0.00116 28.5 11.8 37.3l0.07227-0.06836c5.842 3.955 12.75 6.068 19.93 6.068l-0.09961-0.09961h26.3v-0.09961h24c14.6 0.1 27.5-9.302 31.8-23.1s-1-28.8-13-36.9c-2.245-8.297-6.877-15.83-13.33-21.67l0.0293-0.0293v-0.2988c-8.481-7.475-19.29-11.44-30.3-11.4zm0.7168 20.23c5.223 0.08523 10.44 1.795 14.87 5.189l-0.08203 0.08008c6 4.9 9.501 12.3 9.301 20v2.5c16.9 0 16.9 25.2 0 25.2h-25.4v0.09961h-24.9c-1.81 0-3.529-0.366-5.158-1.006-7.866-4.03-9.516-14.31-3.143-20.39 6.6-6.4 17.8-4.401 21.7 3.799l15.6-14.9c-5.331-6.705-13.08-11.19-21.6-12.61 5.039-5.359 11.92-8.071 18.82-7.959z"/></svg>
