<svg version="1.1" viewBox="0 0 128 128" xmlns="http://www.w3.org/2000/svg"><path d="m64 1.344a11.16 11.16 0 0 0-11.17 11.17 11.16 11.16 0 0 0 0.498 3.154l-25.82 14.91c-0.7231-0.764-1.561-1.442-2.518-1.998-5.344-3.07-12.19-1.246-15.27 4.098-3.071 5.344-1.246 12.19 4.098 15.27 0.9542 0.5483 1.957 0.9337 2.977 1.178v29.78c-1.008 0.2444-2 0.6271-2.945 1.17-5.343 3.106-7.169 9.922-4.094 15.27 3.07 5.344 9.887 7.168 15.26 4.098 0.9465-0.5501 1.776-1.22 2.494-1.975l25.81 14.9a11.16 11.16 0 0 0-0.4941 3.135 11.16 11.16 0 0 0 11.17 11.17c6.176 0 11.17-5.023 11.17-11.17a11.16 11.16 0 0 0-0.5742-3.512l25.63-14.8c0.7742 0.8699 1.692 1.636 2.756 2.248 5.343 3.07 12.19 1.246 15.26-4.098 3.106-5.344 1.281-12.16-4.094-15.27-0.9444-0.5427-1.936-0.9254-2.945-1.17v-29.78c1.02-0.2439 2.022-0.6296 2.977-1.178 5.344-3.106 7.168-9.922 4.098-15.27-3.105-5.344-9.922-7.168-15.27-4.098-0.9616 0.5589-1.804 1.241-2.529 2.01l-25.79-14.89a11.16 11.16 0 0 0 0.4785-3.184 11.16 11.16 0 0 0-11.17-11.17zm-7.912 18.86a11.16 11.16 0 0 0 0.2676 0.2676l-33.81 58.55c-0.144-0.0418-0.288-0.08118-0.4336-0.1172v-29.82c2.842-0.7071 5.404-2.514 6.977-5.248 1.569-2.731 1.853-5.844 1.049-8.652l25.95-14.98zm15.93 0.07812 25.84 14.92c-0.7976 2.804-0.5128 5.91 1.053 8.635 1.573 2.734 4.135 4.541 6.977 5.248v29.82c-0.1428 0.03511-0.2844 0.07261-0.4258 0.1133l-33.74-58.44a11.16 11.16 0 0 0 0.2988-0.293zm-11.1 2.912a11.16 11.16 0 0 0 3.084 0.4844 11.16 11.16 0 0 0 3.111-0.457l33.74 58.44c-0.7551 0.7197-1.424 1.552-1.971 2.502-0.5425 0.9444-0.9235 1.936-1.168 2.945h-67.42c-0.2444-1.008-0.6251-2-1.168-2.945-0.5482-0.9432-1.216-1.77-1.967-2.486l33.76-58.48zm-30.64 69.22h67.45c0.06017 0.2451 0.1325 0.4861 0.209 0.7266l-25.69 14.83a11.16 11.16 0 0 0-8.244-3.652 11.16 11.16 0 0 0-7.924 3.486l-25.92-14.96c0.04125-0.1425 0.0777-0.2856 0.1133-0.4297z"/></svg>
