<svg version="1.1" viewBox="0 0 128 128" xmlns="http://www.w3.org/2000/svg"><path d="m47.57 22.01c-0.813 0.239-1.54 0.7-2.1 1.334-0.5577 0.6301-0.9231 1.407-1.053 2.238l-0.2383 1.443c-11.34 4.029-21.16 11.45-28.13 21.26-6.938 9.763-10.67 21.44-10.67 33.42v7.766c-3.439 0.99-5.355 2.077-5.355 3.225v6.213c-0.009101 0.7368 0.09338 0.8367 0.2344 1.039 2.815 4.119 30.31 8.418 63.77 8.418 33.53 0 61.03-4.344 63.75-8.453 0.2236-0.4121 0.2122-0.6664 0.2188-1.012v-6.213c0-1.155-1.945-2.255-5.432-3.248l0.08594-7.732c-0.00414-11.93-3.703-23.56-10.59-33.29-6.918-9.781-16.67-17.21-27.94-21.27l-0.25-1.551c-0.1294-0.8298-0.4926-1.605-1.047-2.236-0.5569-0.6333-1.281-1.096-2.09-1.336-5.389-1.567-10.97-2.363-16.58-2.364-5.611-9.76e-4 -11.19 0.7947-16.58 2.362zm16.44 15.88 13.72 23.15-13.72 8.434-13.72-8.439s13.72-23.14 13.72-23.15zm13.72 27.72c0 8e-3 -13.72 19.46-13.72 19.46l-13.72-19.45 13.72 8.436z"/></svg>
