<svg version="1.1" viewBox="0 0 128 128" xmlns="http://www.w3.org/2000/svg"><path d="m42.13 0.01758c-1.683 1.079-1.33 3.61-1.391 5.418 0.3826 5.392 3.688 10.12 7.504 13.73-4.297-0.4007-8.615 1.296-11.9 4.022-3.593 3.07-5.906 7.471-6.944 12.04-0.3537 1.768-0.451 3.58-0.3719 5.378-3.663 0.9321-6.418 4.581-6.172 8.376 0.1043 3.691 2.946 7.039 6.535 7.835 0.04572 21.42 0.09208 42.84 0.1367 64.26 0.00281 2.449 2.524 3.181 4.367 3.881 6.265 2.091 12.91 2.657 19.47 2.948 8.679 0.2725 17.51 0.06512 25.93-2.28 2.501-0.7492 5.018-1.65 7.142-3.205 1.731-1.706 0.907-4.224 1.108-6.373 0.1318-1.68-0.2729-3.47 0.2316-5.074 1.32-0.4724 2.802-0.06515 4.189-0.19 3.973 0.1275 8.473-0.06484 11.03-3.655 2.095-2.342 2.192-5.495 2.136-8.44v-28.6c0.1814-5.641-5.176-10.22-10.65-9.738h-6.171c-1.075-0.1681-0.6919-1.313-0.7637-2.057 0.02647-0.5782-0.05181-1.237 0.03711-1.767 4.961-0.4937 8.359-6.012 6.894-10.65-0.9132-3.229-3.93-5.722-7.279-5.986-0.05275-4.725-1.043-9.575-3.752-13.52-2.847-4.071-7.479-7.21-12.56-7.291-2.415-0.1137-4.679 0.8288-6.823 1.822-1.057 0.3687-3.081 1.39-2.437-0.5378 0.3251-3.697 2.284-7.177 5.166-9.491 0.8744-1.323-0.846-2.395-1.554-3.357-1.292-1.684-4.015-2.382-4.958 0.5243-1.47 1.26-2.838 4.244-3.652 5.419-1.288-4.422-4.408-8.159-8.302-10.56-1.758-1.12-3.641-2.033-5.573-2.81l-0.627-0.06641zm1.037 2.775c4.315 1.884 8.524 4.798 10.48 9.236 1.36 2.976 1.739 6.283 1.791 9.523-4.714-2.653-8.892-6.571-11.18-11.53-1.008-2.251-1.492-4.776-1.093-7.23zm19.76 5.84c1.043 0.6163 1.915 1.55 0.4769 2.321-2.981 3.23-4.565 7.721-4.114 12.11 0.6739 1.814 2.984 0.7732 4.389 0.4624 2.302-0.7946 4.447-2.298 6.981-2.168 4.135 0.01526 7.862 2.53 10.42 5.622 2.392 3.082 3.568 6.945 3.769 10.81-0.02155 1.058 0.5931 2.62-1.03 2.53-1.47 1.187-1.537-1.188-2.498-1.922-2.712-3.464-7.754-4.802-11.82-3.097-3.004 1.19-5.353 3.87-6.161 6.996-2.537-3.105-7.153-4.356-10.84-2.664-1.087 0.259-2.404 1.77-3.004 1.776-0.6411-4.542-4.756-8.291-9.355-8.423-3.419-0.201-6.858 1.559-8.73 4.426 0.3515-3.651 1.895-7.133 4.048-10.08 2.62-3.53 6.882-5.726 11.25-5.993 3.484-0.02317 6.495 2.155 9.906 2.513 2.28-0.7826-0.03205-3.916 0.9763-5.518 0.569-3.72 2.695-7.096 5.332-9.703zm-23.25 26.62c5.523-0.2066 9.168 6.003 7.236 10.92 0.853 2.14 3.007-0.3276 3.002-1.594 2.911-5.207 11.59-4.14 13.16 1.617 1.21 2.238 3.325-0.9383 2.256-2.397 0.5494-6.291 9.176-9.309 13.54-4.745 1.41 0.9379 1.536 2.645 2.446 3.906 1.845 0.9639 3.553-1.366 5.52-0.8119 3.51 0.105 6.346 3.715 5.608 7.16-0.5061 3.796-4.507 5.115-7.749 5.619l-3.108 1.063-3.164 0.8819c-1.473 0.5431-0.6878 2.552-1.645 3.547-1.362 2.327-1.249 4.669-1.282 7.042-0.2229 2.442-3.844 3.089-5.354 1.434-1.292-1.748-0.611-4.734-2.95-5.871-1.677-0.7915-2.262-2.568-3.276-3.937-1.847-0.3799-3.794-0.008661-5.684-0.1598-7.964-0.1986-15.93-1.227-23.64-3.243-2.686-0.7483-6.356-0.7832-8.185-3.353-2.465-3.009-1.115-8.203 2.709-9.422 1.986 0.1379 3.739-1.199 3.649-3.356 1.242-2.596 4.034-4.333 6.911-4.301zm45.59 21.89c0.07837 1.572-0.3482 3.326 0.8998 4.59 1.362 1.276 3.223 0.8067 4.894 0.8984 2.093 0.05304 4.204-0.1627 6.273 0.254 3.721 0.8604 5.789 4.662 5.523 8.26v29.89c0.1748 5.008-4.794 8.013-9.292 7.453-1.727-7.2e-4 -3.454-0.00643-5.181-0.02911-3.225-0.03819-3.251 3.451-3.116 5.776-0.001274 1.944-0.001213 3.888-0.009313 5.832-0.6601 1.316-2.343 1.668-3.599 2.293-6.903 2.622-14.38 3.215-21.71 3.34-7.847 0.02063-15.79-0.3511-23.41-2.362-1.495-0.4276-2.998-0.8931-4.367-1.642-0.588-0.5824-0.2686-1.482-0.3531-2.231l-0.1352-62.16c4.511 1.213 9.081 2.225 13.71 2.844 5.683 0.7912 11.43 1.164 17.17 1.023 0.7682 1.641 2.13 3.031 3.619 3.946 1.553 1.726 0.4885 4.74 2.996 5.935 2.732 2.123 7.542 0.9103 8.435-2.568 0.4615-1.797-0.19-3.712 0.5457-5.478 0.7267-1.262 1.108-2.993 1.69-4.178 1.828-0.4832 3.642-1.025 5.415-1.682zm-49.22 5.412v51.16c0.2995 2.106 2.745 2.272 4.34 2.991 7.223 2.313 14.92 2.831 22.45 2.437 5.977-0.4224 12.08-1.573 17.33-4.59 1.431-1.238 0.6853-3.255 0.8746-4.905 0.003685-12.95 0.004016-25.91 0.004299-38.86-2.459 6.857-13.1 7.314-16.57 1.098-1.533-1.523-0.5186-4.379-2.895-5.211l-1.223-1.359c-5.056-0.007905-10.12-0.3249-15.12-1.059 0.1314 1.481 0.02345 2.985 0.05859 4.476-0.007724 13.94 0.01544 27.88-0.01156 41.81-0.1366 3.194-5.499 3.053-5.252-0.3303v-45.67l0.2031-1.006c-0.9123-0.4784-3.183-0.5038-4.186-0.9863zm52.76 5.439c-2.578-0.09129-3.742 2.482-3.531 4.671v26.64c-0.09231 2.58 2.484 3.742 4.672 3.531h4.941c2.531 0.09348 3.745-2.428 3.531-4.596v-26.71c0.09035-2.579-2.484-3.742-4.672-3.531zm0 2.289h6.082c1.342 0.0288 1.275 1.435 1.242 2.381v26.64c0.01283 1.184-1.256 1.326-2.155 1.244h-5.167c-1.281-2e-4 -1.293-1.376-1.244-2.307v-26.72c-0.02578-0.6733 0.5942-1.256 1.242-1.242z"/></svg>
