<svg version="1.1" viewBox="0 0 128 128" xmlns="http://www.w3.org/2000/svg"><path d="m21.91 5.484-16.95 46.36 11.45 3.83-10.13 18.76 17.21 13.59-1.584 5.305-7.508 26.29 35.85-12.96 24.55 15.85 45.08-18.06 2.105-67.78-36.81-29.28-14.14 15.9-10.83-13.29-38.3-4.523zm5.023 21.45h74.14l-0.00195 30.26 0.00195-0.001953v43.89h-74.14v-74.14zm1 1v72.14h72.14v-72.14h-72.14zm38.88 8.641h6.094v17.86c0.02746 1.446-0.1986 2.886-0.668 4.254-0.8129 2.305-2.646 4.106-4.965 4.879-1.3 0.4379-2.664 0.6525-4.035 0.6328l0.08594 0.04688c-1.859 0.0611-3.703-0.3585-5.352-1.219-1.356-0.7273-2.563-1.703-3.559-2.875l3.766-4.207c0.687 0.778 1.484 1.45 2.367 2 0.7861 0.4885 1.696 0.7423 2.621 0.7305 1.001 0.05022 1.974-0.3363 2.668-1.059 0.7348-0.9923 1.082-2.219 0.9766-3.449v-17.59zm-30.21 0.02734h13.64v4.996h-3.816v17.26h3.816v5h-13.64v-5h3.824v-17.26h-3.824v-4.996zm-0.05078 50.15h27.43v4.574h-27.43v-4.574z"/></svg>
