<svg version="1.1" viewBox="0 0 128 128" xmlns="http://www.w3.org/2000/svg"><path d="m54 0c-0.4 0-0.7-3.905e-4 -1 0.09961h-0.3008c-1.4 0.2-2.599 0.7-3.699 1.5l-42.3 25.6c-1.2 0.6-2.299 1.5-3.199 2.5l-0.1992 0.2012c-0.3 0.3-0.5008 0.6004-0.8008 0.9004-0.1 0.1-0.1992 0.1988-0.1992 0.2988-0.2 0.4-0.5012 0.6996-0.7012 1.1 0 0.1-0.09961 0.1016-0.09961 0.1016-0.2 0.4-0.3996 0.8988-0.5996 1.299 0 0.1-0.09961 0.2008-0.09961 0.3008-0.1 0.3-0.2008 0.6996-0.3008 1.1 0 0.2-0.09961 0.3-0.09961 0.5-0.1 0.3-0.1012 0.7-0.2012 1 0 0.2-0.09961 0.3-0.09961 0.5-0.1 0.5-0.09961 1-0.09961 1.5 0 0.4-3.905e-4 0.7992 0.09961 1.199v0.4004c0 0.3 0.09961 0.5008 0.09961 0.8008 0 0.1 0.1016 0.3004 0.1016 0.4004 0.1 0.2 0.09922 0.4992 0.1992 0.6992 0 0.1 0.09961 0.3004 0.09961 0.4004 0.1 0.2 0.2008 0.4992 0.3008 0.6992 0.1 0.3 0.2004 0.6004 0.4004 0.9004 0.1 0.1 0.09922 0.3004 0.1992 0.4004 0.1 0.2 0.2004 0.3992 0.4004 0.6992 0 0.1 0.09961 0.2012 0.09961 0.2012 0.2 0.2 0.3 0.4992 0.5 0.6992 1.7 2.3 4.1 4.001 7 4.801l28.9 8.799v29.9h29.5l-29 14.2c-4.3 2.2-7 6.6-7 11.4 0 7.1 5.699 12.8 12.8 12.8 2.8 0 5.3-0.9004 7.4-2.4l73.1-50.1c1.6-1.1 2.701-3.001 2.701-5.201 0-1.9-0.8-3.499-2-4.699l-65.2-62.8c-1.7-1.6-4-2.699-6.6-2.699h-0.09961zm0 21.4 20.1 17h-35.7v5l-5.6-4.701 21.2-17.3zm-4.1 23.3h6.4v1.9h-4.201v1.201h3.801v1.799h-3.801v1.301h4.301v1.9h-6.5v-0.1016-8zm7.199 0.1016h7v1.898h-2.4v6h-2.199v-6h-2.4v-1.898zm-10.4 0.09961h2.201v5.1c0 1-0.3008 1.701-0.8008 2.301-0.5 0.5-1.299 0.7988-2.199 0.7988-1.4-0.2-2.201-0.8-2.801-1.5l1.4-1.299c0.4 0.5 0.8008 0.6992 1.301 0.6992 0.5 0 0.8984-0.3996 0.8984-1.1v-5zm42.8 6.4 20.8 17.5-20.8 10.1v-27.6zm-28 4.5h2.1l3.4 8.1h-2.4l-0.5996-1.5h-3.1l-0.5996 1.5h-4.201l-1.6-2.4h-0.6992v2.4h-2.201v-8h3.5c1.2 0 2.1 0.2988 2.6 0.7988 0.5 0.5 0.7012 1.1 0.7012 1.9 0 1.2-0.5996 2-1.6 2.5l1.5 2.301c0.4-0.9 3.199-7.6 3.199-7.6zm5.801 0h2.199v8h-2.199v-8zm3.1 0h2.1l2.9 4.199v-4.199h2.199v8h-0.09961-1.9l-3-4.301v4.301h-2.199v-8zm10.9 0c1.4 0 2.399 0.3996 3.299 1.1l-1.1 1.6c-0.7-0.5-1.501-0.8008-2.301-0.8008-0.5 0-0.7988 0.2-0.7988 0.5 0 0.4 0.3004 0.5008 1.4 0.8008 1.9 0.2 3 0.8004 3 2.4 0 1.6-1.301 2.6-3.201 2.6-1.3 0-2.699-0.4008-3.699-1.301l1.199-1.5c0.8 0.6 1.7 1 2.6 1 0.6 0 0.9004-0.2 0.9004-0.5 0-0.3-0.3004-0.4988-1.4-0.7988-1.7-0.4-3-0.9-3-2.5 0-1.5 1.202-2.6 3.102-2.6zm-37.3 0.09961h3.801c1 0 1.699 0.2992 2.199 0.6992 0.3 0.3 0.5 0.8008 0.5 1.301 0 0.9-0.4992 1.499-1.199 1.799 1 0.3 1.6 0.9004 1.6 1.9 0 1.4-1.1 2.201-3 2.201h-3.9v-7.9zm2.199 1.699v1.4h1.102c0.6 0.1 1-0.1992 1-0.6992 0-0.5-0.3-0.7012-1-0.7012h-1.102zm7.602 0.2012v1.898h1.199c0.7 0 1.199-0.4 1.199-1 0-0.6-0.4992-0.8984-1.199-0.8984h-1.199zm8.699 0.6992-0.9004 2.199h1.801l-0.9004-2.199zm-16.4 2.1v1.5h1.4c0.7 0 1.1-0.1992 1.1-0.6992 0-0.5-0.2996-0.8008-1.1-0.8008h-1.4zm-2.199 19.3h19.2v3.199h-19.2v-3.199z"/></svg>
