<svg version="1.1" viewBox="0 0 128 128" xmlns="http://www.w3.org/2000/svg"><path d="m27.4 41c-0.6 0-0.8 0.2008-1 0.8008l-8 20.3c-0.3 0.8-0.9 2.4-4 2.4v1.199h7.699v-1.199c-1.5 0-2.5-0.6992-2.5-1.699 0-0.2-3.9e-4 -0.3012 0.09961-0.7012l1.701-4.299h9.9l2 5.1c0.1 0.2 0.1992 0.3996 0.1992 0.5996 0 1-1.901 1-2.801 1v1.199h9.801v-1.199h-0.6992c-2.3 0-2.6-0.3008-2.9-1.301l-8.6-21.4c-0.2-0.6-0.3004-0.8008-0.9004-0.8008zm-25.4 0.9004v1.5h1.1c3.8 0 3.9 0.4988 3.9 2.299v26.1c0 1.8-0.1004 2.299-3.9 2.299h-1.1v1.5h25.8l1.398-12.6h-1.199c-0.5 5.1-1.2 11.3-10 11.3h-4c-2.3 0-2.4-0.3-2.4-2v-26.5c0-1.7 0.001177-2.4 4.701-2.4h1.6v-1.5c-1.9 0.1-6.3 0.09961-8.4 0.09961-1.9 0-5.8 3.91e-4 -7.5-0.09961zm89.8 0v1.5h0.8984c2.7 0 3.702 0.2992 4.602 1.699l9.1 13.8-8.1 12c-0.7 1-2.201 3.299-7.201 3.299v1.5h2.352c-1.15 6.586-2.731 9.801-10.65 9.801h-6.602c-2.3 0-2.398-0.3-2.398-2v-13.3h4.398c4.8 0 5.4 1.601 5.4 5.801h1.201v-13.1h-1.201c0 4.2-0.5004 5.799-5.4 5.799h-4.398v-12c0-1.6 0.09844-2 2.398-2h6.4c7.6 0 8.901 2.701 9.701 9.701h1.199l-1.4-11.2h-22.92l-0.9824-11h-30.3l-0.9004 11.1h1.199c0.7-8 1.4-9.701 9-9.701 0.9 0 2.201-3.9e-4 2.701 0.09961 1 0.2 1 0.7004 1 1.9v26.1c0 1.7-0.001177 2.4-5.201 2.4h-2v1.5c2-0.1 7.1-0.09961 9.4-0.09961 2.3 0 7.4-3.91e-4 9.5 0.09961v-1.5h-2c-5.2 0-5.199-0.7004-5.199-2.4v-26c0-1 3.91e-4 -1.698 0.9004-1.898 0.5-0.1 1.899-0.1016 2.799-0.1016 7.435 0 8.188 1.582 8.883 9.5h-3.783v1.5h1.102c3.8 0 3.898 0.5008 3.898 2.301v26c0 1.8-0.09844 2.301-3.898 2.301h-1.102v1.699h28.6l1.854-11.3h8.346v-1.5c-2.3 0-3.1-1.399-3.1-2.299 0-0.4 0.1-0.6012 0.5-1.201l7-10.4 7.9 11.9c0.1 0.2 0.1992 0.4 0.1992 0.5 0 0.6-1.099 1.4-3.199 1.5v1.5c1.7-0.1 5.399-0.09961 7.199-0.09961 2.1 0 4.4-3.9e-4 6.5 0.09961v-1.5h-0.9004c-2.6 0-3.599-0.1988-4.699-1.799l-10.5-15.8 6.799-10c1-1.6 2.701-3.199 7.201-3.199v-1.5h-11.9v1.5c2 0 3.1 1.099 3.1 2.299 0 0.5-0.1004 0.6016-0.4004 1.102l-5.699 8.398-6.4-9.6c-0.1-0.1-0.2988-0.4992-0.2988-0.6992 0-0.6 1.099-1.4 3.199-1.5v-1.5c-1.7 0.1-5.299 0.09961-7.199 0.09961-1.5 0-4.6 3.91e-4 -6.5-0.09961zm-65.4 3.5 4.4 11.3h-8.9l4.5-11.3z"/></svg>
