<svg width="128" height="128" version="1.1" viewBox="0 0 128 128" xmlns="http://www.w3.org/2000/svg"><path d="m62.77 2.559c-29.44 0-53.26 24.72-53.26 55.22a56.41 56.41 0 0 0 7.602 28.52c1.274 1.367 2.789 2.395 4.895 2.395 1.991 0 3.355-0.9013 4.473-2.158v4.092 8.9c0 4.11 3.374 7.41 7.484 7.41 4.203 0 7.531-3.3 7.531-7.41v-15.87c0.01691-0.3005 0.0283-0.5953 0.03906-0.8887 1.978 2.809 3.767 5.928 7.488 5.928 2.319 0 3.797-1.206 5.016-2.783v4.717 27.32c0 4.059 3.375 7.434 7.508 7.434h0.02344c4.155 0 7.531-3.375 7.531-7.434v-34.29-0.1758c1.801 2.596 3.589 5.215 6.992 5.215 2.073 0 3.474-0.9747 4.621-2.32v4.254 8.9c0 4.11 3.351 7.41 7.508 7.41 4.156 0 7.531-3.3 7.531-7.41v-15.87-0.709c1.104 1.574 2.178 3.199 3.559 4.328-0.0719 0.1072-0.1383 0.2152-0.2109 0.3223 1.032 0.683 2.254 1.098 3.473 1.098h0.125c0.09676 0 0.1854-0.01176 0.2793-0.01562 0.05505 0.001402 0.1023 0.01562 0.1582 0.01562 4.011 0 5.504-3.621 7.461-6.578 3.059-6.461 4.937-13.54 5.359-21.07 0.05998-1.045 0.08984-2.092 0.08984-3.141 0-0.02096-0.00193-0.04154-0.00195-0.0625 2e-5 -0.01969 0.00195-0.0389 0.00195-0.05859 0-30.5-23.86-55.22-53.28-55.22zm-2.816 14.38c14.5 0 26.27 13.84 26.27 28.98 0 15.07-7.75 25.63-26.27 25.63-18.54 0-26.41-10.56-26.41-25.63 0-15.14 11.86-28.98 26.41-28.98zm-7.09 8.242c-5.453 0-9.926 4.844-9.926 10.81 0 5.965 4.473 10.73 9.926 10.73 5.453 1e-6 9.832-4.769 9.832-10.73 0-5.969-4.379-10.81-9.832-10.81zm-1.637 3.328c2.665 0 4.938 2.273 4.938 5.012 0 2.738-2.273 4.941-4.938 4.941a4.93 4.93 0 0 1-4.941-4.941c0-2.739 2.203-5.012 4.941-5.012z" fill-rule="evenodd"/></svg>
