<svg version="1.1" viewBox="0 0 128 128" xmlns="http://www.w3.org/2000/svg"><path d="m34.07 31.28c-1.312 0.03892-2.099 1.345-2.679 2.371-1.757 3.501-2.61 7.362-3.579 11.13-1.86 7.634-3.291 15.37-4.683 23.1-0.04049 0.7718-0.1453 1.356-0.6543 0.468-1.031-1.192-2.54-1.99-4.14-1.938-2.864-0.07157-5.735-0.01088-8.602-0.03099-2.993 0.01518-5.988-0.03079-8.98 0.02378-1.632 0.02602 0.7453 0.3963 1.193 0.8832 2.506 1.428 3.843 4.17 4.949 6.712 1.909 4.539 2.525 9.45 3.472 14.24 0.5805 2.457 1.096 5.038 2.513 7.172 0.555 0.8976 1.547 1.367 2.586 1.222 5.861-0.02508 11.72-0.004781 17.58-0.01134 1.716-0.5567 2.372-2.588 3.085-4.094 1.975-5.131 3.037-10.55 4.214-15.91 1.234-5.83 2.259-11.75 3.333-17.58 0.6805 4.63 1.721 9.199 2.591 13.8 1.361 6.57 2.616 13.21 4.967 19.51 0.6513 1.54 1.313 3.312 2.821 4.206 0.4981 0.1063 0.9879 0.09545 0.9879 0.09545 6.186 0.08211 12.38 0.05336 18.56 0.037 1.629-0.9393 2.277-2.859 2.976-4.497 2.679-7.388 3.872-15.22 5.503-22.87l1.769-9.719c0.08745-0.3384 0.1885 0.7488 0.272 1.037 1.724 9.203 3.285 18.46 5.839 27.48 0.8897 2.74 1.598 5.721 3.604 7.894 1.167 1.075 2.906 0.4623 4.335 0.63 5.257-0.01469 10.51 0.03832 15.77-0.02503 2.701-2.211 3.828-5.732 4.404-9.058 0.4905-3.433 0.668-6.914 1.439-10.3 0.7442-3.386 1.98-6.901 4.935-9.015 0.9928-0.9939 2.395-1.149 3.539-1.833-3.273-0.08516-6.549-0.008569-9.823-0.033-2.985 0.02286-5.976-0.04789-8.958 0.0395-1.94 0.2568-3.435 1.746-4.277 3.432-0.4352 1.03-0.3983 0.007289-0.4932-0.5182-0.6421-4.417-1.561-8.791-2.383-13.18-1.339-6.556-2.57-13.17-4.783-19.51-0.7534-1.977-1.564-4.205-3.494-5.323-6.63 0.004285-13.26-0.03849-19.89 0-1.804 0.7184-2.488 2.725-3.204 4.371-1.583 4.073-2.342 8.398-3.356 12.63-1.337 6.028-2.433 12.1-3.538 18.18-2.093-9.795-3.496-19.79-6.585-29.35-0.7302-1.777-1.293-3.768-2.742-5.113-0.5246-0.5715-1.211-0.8263-1.967-0.7166-0.4758 0.01468-0.6295-0.06791-1.19-0.037-5.748-0.006505-11.5 0.01312-17.25-0.01z"/></svg>
