<svg version="1.1" viewBox="0 0 128 128" xmlns="http://www.w3.org/2000/svg"><path d="m64 2c-16.56 0-32.13 6.447-43.84 18.16-11.71 11.71-18.16 27.28-18.16 43.84s6.45 32.13 18.16 43.84c11.71 11.71 27.28 18.16 43.84 18.16 16.56 0 32.13-6.448 43.84-18.16 11.71-11.71 18.16-27.28 18.16-43.84s-6.448-32.13-18.16-43.84c-11.71-11.71-27.28-18.16-43.84-18.16zm-0.3496 1.828v11.83c-3.422 0.02449-6.759 0.4078-9.979 1.111l-1.375-6.02a0.414 0.414 0 0 0-0.4961-0.3125 54.78 54.78 0 0 0-22.89 11.34l-0.001953 0.001953a0.412 0.412 0 0 0-0.04883 0.5801l3.953 4.734c-0.9404 0.796-1.852 1.624-2.729 2.488l-8.381-8.381c11.25-11.13 26.12-17.29 41.95-17.38zm0.6992 0c15.83 0.08974 30.7 6.25 41.95 17.38l-8.381 8.381c-8.657-8.534-20.5-13.83-33.57-13.93v-11.83zm-0.6992 12.53v13.3c-2.352 0.02368-4.648 0.2818-6.865 0.7578l-2.959-12.96c3.17-0.6923 6.455-1.071 9.824-1.096zm0.6992 0c12.87 0.09344 24.54 5.316 33.07 13.72l-9.398 9.398c-0.7718-0.7564-1.578-1.477-2.418-2.158l4.086-5.123a0.414 0.414 0 0 0-0.06641-0.5801 41 41 0 0 0-11.2-6.352h-0.001953a0.412 0.412 0 0 0-0.5312 0.2422l-2.311 6.156c-3.518-1.265-7.3-1.966-11.24-2.006v-13.3zm-43.14 5.34 8.381 8.381c-8.533 8.657-13.83 20.5-13.93 33.57h-11.83c0.08974-15.83 6.249-30.7 17.38-41.95zm85.59 0c11.13 11.26 17.29 26.12 17.38 41.95h-11.83c-0.09349-13.07-5.392-24.91-13.93-33.57l8.383-8.383zm-73.54 5.934 8.52 10.21c-0.6194 0.5269-1.22 1.074-1.801 1.643l-9.4-9.4c0.862-0.8495 1.757-1.665 2.682-2.447zm30.39 2.727v13.3c-1.282 0.0218-2.536 0.1588-3.75 0.4082l-2.959-12.96c2.167-0.4645 4.411-0.7186 6.709-0.7422zm0.6992 0c3.852 0.03961 7.551 0.7253 10.99 1.961l-4.674 12.46c-1.985-0.6907-4.109-1.082-6.318-1.119v-13.3zm-34.27 0.2168 9.398 9.398c-2.468 2.518-4.547 5.413-6.152 8.59l-11.98-5.77h-0.001953c2.261-4.529 5.218-8.649 8.736-12.22zm67.84 0c8.407 8.53 13.63 20.2 13.72 33.07h-13.3c-0.09269-9.205-3.822-17.55-9.82-23.67l9.4-9.4zm-12.75 7.293c0.8192 0.665 1.604 1.37 2.357 2.107l-9.4 9.4c-0.4012-0.3878-0.8142-0.7631-1.246-1.117l8.289-10.39zm-42.95 0.5059 8.52 10.21c-0.2985 0.257-0.5899 0.5213-0.873 0.7949l-9.4-9.4c0.5653-0.5537 1.151-1.086 1.754-1.6zm-2.248 2.096 9.4 9.4c-1.362 1.409-2.523 3.014-3.436 4.768l-11.98-5.771c1.571-3.105 3.605-5.934 6.018-8.396zm48.05 0c5.872 5.994 9.523 14.17 9.615 23.18h-13.3c-0.09094-5.346-2.252-10.19-5.717-13.78l9.4-9.4zm-24.38 3.889v12.3c-0.29 0.01368-0.5751 0.04337-0.8555 0.08984l-2.738-12c1.164-0.238 2.366-0.3671 3.594-0.3887zm0.6992 0c2.123 0.03737 4.163 0.4121 6.072 1.074l-4.324 11.52c-0.5579-0.1664-1.144-0.2664-1.748-0.2949v-12.3zm12.1 4.447c0.4112 0.3375 0.8051 0.6953 1.188 1.064l-8.693 8.693-0.001953-0.001953c-0.05235-0.04759-0.1064-0.09454-0.1602-0.1406l7.668-9.615zm-25.26 0.3105 7.879 9.438c-0.003074 0.002785-0.006696 0.005022-0.009765 0.007812l-8.695-8.693c0.2679-0.2586 0.544-0.5088 0.8262-0.752zm-1.32 1.248 8.693 8.693-0.001953 0.001953c-0.3402 0.3742-0.6424 0.7844-0.9004 1.223l-11.09-5.342c0.8783-1.683 1.994-3.222 3.301-4.576zm28.26 0c3.338 3.458 5.419 8.132 5.51 13.29h-5.678a13.92 13.92 0 0 0-0.6836-4.188v-0.001953a0.414 0.414 0 0 0-0.5195-0.2637l-5.988 1.945c-0.3259-0.7692-0.78-1.475-1.334-2.084l8.693-8.693zm-14.48 6.994v3.143l-0.6992-3.068c0.2294-0.0365 0.4627-0.06191 0.6992-0.07422zm0.6992 0c0.5182 0.02696 1.02 0.1164 1.5 0.2559l-1.5 3.996v-4.252zm3.992 1.611c0.03435 0.02969 0.06978 0.05751 0.1035 0.08789l-0.8594 0.8594 0.7559-0.9473zm-9.283 0.584 2.701 2.701-3.465-1.668c0.2215-0.3689 0.4773-0.7151 0.7637-1.033zm9.883 0c0.4784 0.5313 0.8734 1.14 1.162 1.805l-4.395 1.428 3.232-3.232zm-65.11 4.795h11.83c0.09349 13.07 5.392 24.91 13.93 33.57l-8.381 8.381c-11.13-11.25-17.29-26.12-17.38-41.95zm61.54 0h5.268c-0.06261 1.204-0.4473 2.322-1.068 3.273l-4.199-3.273zm5.967 0h12.3c-0.07411 4.21-1.475 8.101-3.807 11.27l-9.707-7.564c0.7116-1.072 1.149-2.341 1.213-3.705zm13 0h13.3c-0.07661 7.449-2.58 14.33-6.764 19.87l-10.49-8.174c2.424-3.288 3.881-7.328 3.955-11.7zm14 0h13.3c-0.07758 10.69-3.691 20.55-9.729 28.47l-10.48-8.17c4.277-5.665 6.835-12.69 6.912-20.3zm14 0h11.83c-0.08975 15.83-6.25 30.7-17.38 41.95l-3.984-3.984a54.7 54.7 0 0 0 4.322-4.898 0.413 0.413 0 0 0-0.07226-0.582l-4.598-3.584c6.131-8.042 9.799-18.05 9.877-28.9zm-51.29 0.3848-3.281 1.58c-0.1123-0.3017-0.2036-0.6151-0.2715-0.9355l3.553-0.6445zm2.16 0.5547-1.156 5.068c-0.9361-0.2876-1.786-0.7762-2.496-1.416l3.652-3.652zm1.443 0.00586 3.256 4.082c-0.7017 0.5112-1.506 0.888-2.377 1.094l-0.8789-5.176zm-7.846 0.209c0.08006 0.3833 0.1927 0.7563 0.3301 1.115l-11.09 5.342c-0.6-1.348-1.051-2.775-1.336-4.262l12.1-2.195zm4.705 0.4902-2.451 2.451c-0.1385-0.1538-0.2707-0.3142-0.3945-0.4805l2.846-1.971zm-17.49 1.83c0.2959 1.549 0.768 3.036 1.395 4.439l-6.078 2.928h-0.001953a0.414 0.414 0 0 0-0.1914 0.5508 27.66 27.66 0 0 0 2.178 3.738 0.42 0.42 0 0 0 0.5762 0.1055l5.518-3.822c0.5958 0.8378 1.254 1.628 1.967 2.365l-9.4 9.4c-4.572-4.667-7.796-10.65-9.045-17.33l13.08-2.375zm14.07 0.5391c0.1478 0.1996 0.3078 0.3946 0.4746 0.5781l-8.693 8.693c-0.6833-0.7078-1.313-1.466-1.885-2.27l10.1-7.002zm0.9688 1.072 0.001953 0.001953c0.8029 0.7299 1.768 1.284 2.834 1.604l-2.74 12c-3.358-0.8549-6.37-2.581-8.789-4.916l8.693-8.693zm9.285 0.4902 7.664 9.611c-2.391 1.852-5.217 3.167-8.299 3.758l-2.062-12.13c0.9894-0.2275 1.904-0.6534 2.697-1.236zm-38.1 0.3984c1.275 6.82 4.566 12.94 9.236 17.7l-9.398 9.398c-6.578-6.674-11.2-15.27-12.95-24.86a0.415 0.415 0 0 0 0.1621 0.1133l12.95-2.35zm19.63 8.299c2.511 2.427 5.639 4.219 9.127 5.104l-2.959 12.96c-5.968-1.454-11.32-4.5-15.57-8.666l9.4-9.4zm26.57 1.461 8.287 10.39c-4.206 3.301-9.214 5.62-14.68 6.617l-2.227-13.11c3.201-0.6118 6.137-1.975 8.619-3.9zm-36.47 8.436c6.121 5.999 14.47 9.728 23.68 9.82v13.3c-12.87-0.09343-24.55-5.314-33.08-13.72l9.4-9.4zm45.19 2.504 8.287 10.39c-8.028 6.334-18.13 10.15-29.11 10.23v-13.3c7.845-0.079 15.07-2.8 20.82-7.316zm-55.09 7.391c8.657 8.534 20.5 13.83 33.57 13.93v11.83c-15.83-0.08975-30.7-6.25-41.95-17.38l8.381-8.381zm63.81 3.547 3.617 4.535a0.414 0.414 0 0 0 0.5801 0.06641 54.7 54.7 0 0 0 4.203-3.777l4.01 4.01c-11.25 11.13-26.12 17.29-41.95 17.38v-11.83c11.14-0.07973 21.39-3.949 29.54-10.38z"/></svg>
