<svg width="128" height="128" version="1.1" viewBox="0 0 128 128" xmlns="http://www.w3.org/2000/svg"><path d="m21.95 0.005472c-1.486 0.06742-3.022 0.634-3.785 2.433-1.179 3.939-1.794 8.026-1.826 12.14 3.28e-4 0.0051 0.0018 0.01051 0.0023 0.01562l-0.0067-0.0023c0 0.392-0.04421 0.799-0.0625 1.227-0.06285 1.558-0.1113 3.2-0.125 4.96 0 1.963-8.57e-4 4.013 0.03571 6.156 0.04457 1.977 0.1292 4.035 0.2321 6.129 0.1074 1.79 0.2231 3.599 0.3705 5.447v0.2098c0.0198 0.03671 0.04038 0.07079 0.06027 0.1071 0.01504 0.1133 0.02619 0.226 0.02902 0.3438 0.1748 1.96 0.3393 3.952 0.5759 5.944 0.232 1.986 0.4817 4.066 0.7857 6.129 0.2548 1.737 0.5312 3.458 0.8169 5.199 0.05714 0.344 0.1292 0.7074 0.1875 1.047a125.4 125.4 0 0 0 2.92 12.38c0.3748 1.258 0.7456 2.478 1.125 3.63 0.3303 0.9679 0.6872 1.942 1.031 2.902a84.1 84.1 0 0 0 2.74 6.576l0.02455 0.01339c0.02594 0.08708 0.05465 0.1684 0.09597 0.2522 1.186 2.56 2.531 5.044 4.026 7.437 0.048 0.07085 0.09806 0.1735 0.1518 0.2455-2.171-0.5939-4.436-0.7675-6.674-0.5133 4.064 1.129 7.769 3.288 10.75 6.267-1.449 1.27-3.2 2.148-5.084 2.548 1.872 0.3086 3.792 0.1376 5.58-0.4955-1.718 1.851-2.891 4.14-3.393 6.616 1.232-2.438 3.146-4.464 5.508-5.834 0.4164 1.379 0.85 2.784 1.293 4.199-3.88 7.562-7.83 15.71-11.85 24.3a2.969 2.969 0 0 0 2.286-1.665c0.7046-1.5 4.448-9.482 10.18-20.68 2.204 6.953 4.692 14.3 7.393 21.93 0.544-0.7051 0.6964-1.634 0.4107-2.473-0.5256-1.446-3.384-9.532-6.979-21.05 0.8276-1.607 1.688-3.258 2.59-4.977 0.6693 0.1751 1.319 0.429 1.932 0.7589a9.965 9.965 0 0 1 2.707 4.564 8.091 8.091 0 0 0-1.772-5.861c7.12 1.375 13.59 0.4602 17.53-4.316 0.3428-0.4331 0.6832-0.8881 1.009-1.375a6.957 6.957 0 0 1-7.004 1.455 19.47 19.47 0 0 0 10.86-6.531 40.67 40.67 0 0 0 1.974-2.553 15.79 15.79 0 0 1-15.46 2.625l-0.04911-0.0023c-0.06068-0.02295-0.1215-0.03741-0.2009-0.0692 6.028-0.3307 11.79-2.553 16.49-6.353 2.328-1.898 4.427-4.063 6.255-6.447 1.59-2.067 3.048-4.231 4.37-6.477 1.331-2.252 2.574-4.555 3.723-6.906-1.272 0.4228-2.594 0.6747-3.932 0.741l-0.7723 0.04018h-0.7857c4.413-1.089 8.228-3.857 10.63-7.714-1.791 0.8656-3.724 1.398-5.705 1.571-0.3086 0.032-0.6385 0.03228-0.9687 0.03571h-0.25c1.503-0.3615 2.953-0.9139 4.316-1.643 0.2674-0.1383 0.5309-0.2906 0.7812-0.4597 0.392-0.2457 0.7593-0.5169 1.125-0.7946 0.2366-0.192 0.4588-0.366 0.692-0.558 0.5394-0.4685 1.036-0.9769 1.491-1.531 0.1566-0.1783 0.304-0.3348 0.4285-0.5223 0.192-0.272 0.379-0.5229 0.5447-0.7812 0.7109-1.015 1.38-2.057 2.009-3.124 0.2674-0.4548 0.5084-0.8878 0.7187-1.29 0.07542-0.1646 0.17-0.3033 0.25-0.4553 0.2194-0.4605 0.4283-0.8521 0.5803-1.21 0.1828-0.4114 0.3483-0.8336 0.4866-1.267-0.1792 0.1118-0.371 0.2012-0.5714 0.2679-1.86 0.6531-3.81 1.017-5.781 1.08-0.02628-0.01371-0.05418-0.01371-0.07589 0-0.1347-0.0062-0.2692-0.0023-0.404 0 2.923-0.6909 5.581-2.217 7.653-4.393 0.5274-0.5629 1.043-1.137 1.545-1.723 1.63-1.875 3.166-3.831 4.602-5.857 1.319-1.841 2.539-3.75 3.656-5.719 0.5889-1.025 1.124-2.08 1.602-3.161 0.3371-0.7963 0.6196-1.551 0.8772-2.29 0.028-0.05019 0.0558-0.1003 0.0826-0.1518 1.705-3.82 1.822-8.161 0.3214-12.07 0 0-2.794-6.464-7.459-4.54-4.072 2.24-7.806 5.044-11.09 8.33-0.0085 0.0073-0.01622 0.01687-0.02455 0.02455l-0.0112-0.03348c-0.3268 0.3086-0.6736 0.6117-1.027 0.9374-1.37 1.272-2.716 2.568-4.04 3.888-1.644 1.641-3.267 3.305-4.866 4.991-1.582 1.682-3.139 3.386-4.674 5.112-1.36 1.547-2.704 3.107-4.031 4.683l-0.1562 0.1785c-0.01272 0.03506-0.02352 0.07171-0.03571 0.1071-0.07276 0.09315-0.1456 0.1872-0.2276 0.2723-1.419 1.719-2.86 3.456-4.272 5.255-1.406 1.794-2.843 3.657-4.236 5.562-1.174 1.6-2.331 3.212-3.473 4.834-0.2274 0.3223-0.4603 0.6688-0.6786 0.991-1.371 2.054-2.702 4.066-3.871 6-1.261 2.062-2.464 4.157-3.607 6.285-0.6787 1.263-1.339 2.535-1.982 3.817-0.504 1.04-0.9909 2.107-1.473 3.152-1.11 2.447-2.119 4.938-3.023 7.468-0.0015 0.01161-0.0029 0.03059-0.0045 0.04241l-0.0045-0.0112c-0.05371 0.1029-0.0985 0.2095-0.1339 0.3169a77.26 77.26 0 0 0-1.571 4.93c-0.7446 0.9243-1.609 1.753-2.574 2.466a20.04 20.04 0 0 0-0.7656-0.8817 25.35 25.35 0 0 0 4.487-11.79 34 34 0 0 0-0.08482-7.941 54.02 54.02 0 0 0-1.267-6.794 89.69 89.69 0 0 0-1.942-6.656 13.28 13.28 0 0 1-2.018 2.915l-0.4553 0.5c-0.152 0.1691-0.3219 0.3172-0.4911 0.4955a15.43 15.43 0 0 0 1.902-11.46 14.51 14.51 0 0 1-2.616 4.531c-0.1737 0.2091-0.3791 0.4148-0.5848 0.6205-0.05371 0.04-0.09431 0.09349-0.1651 0.1518a15.93 15.93 0 0 0 1.696-3.723c0.07999-0.2548 0.1484-0.5139 0.1964-0.7768 0.09371-0.3977 0.156-0.8009 0.2143-1.201 0.02286-0.2686 0.06642-0.5138 0.08928-0.7812a11.11 11.11 0 0 0 0-1.888c0-0.2091 3.6e-5 -0.396-0.04911-0.5937-0.05371-0.2937-0.08914-0.5663-0.1428-0.8348a46.89 46.89 0 0 0-0.683-3.201c-0.1166-0.456-0.2282-0.875-0.3482-1.255-0.05371-0.152-0.08021-0.2986-0.1339-0.4597-0.1428-0.4148-0.2582-0.7995-0.3839-1.116a11.68 11.68 0 0 0-0.4821-1.107 2.446 2.446 0 0 1-0.192 0.5223 17.15 17.15 0 0 1-2.878 4.161l-0.1094 0.09821a0.09142 0.09142 0 0 0-0.04018 0.05803 5.131 5.131 0 0 0-0.3571 0.3974c0-0.02266 0.02126-0.0425 0.03571-0.0625l0.0491-0.04464a13.68 13.68 0 0 0 2.089-7.531c0-0.6514-0.04896-1.339-0.1027-2.044a64.47 64.47 0 0 0-0.7232-6.545 56.21 56.21 0 0 0-1.237-5.883 32.24 32.24 0 0 0-0.9553-2.986 37.1 37.1 0 0 0-0.866-1.958c-0.01811-0.05582-0.03399-0.1115-0.05357-0.1674-1.298-3.456-3.919-6.252-7.281-7.777 0 0-1.826-0.7385-3.737-0.6517zm1.419 5.691c0 0.1428-0.03986 0.2768-0.05357 0.4196-0.3036 3.814-0.3079 7.645-0.01339 11.46 0.1029 1.83 0.262 3.879 0.4597 6.147 0.0046 0.1154 0.01732 0.2372 0.04018 0.3527 0.1874 1.983 0.429 4.116 0.741 6.442 0.2628 2.009 0.5586 4.116 0.9152 6.402 0.2942 1.972 0.6595 4.04 1.033 6.234l-0.03348 0.02901c0.06628 0.05714 0.076 0.1031 0.07142 0.1339 0.05371 0.2948 0.1071 0.5544 0.1562 0.8526 0.1703 0.8662 0.3217 1.746 0.5 2.63 0.1828 0.9645 0.3839 1.946 0.5759 2.955 0.09371 0.5085 0.1928 1.017 0.2991 1.536 0.3177 1.554 0.6613 3.148 1.013 4.786 0.456 2.018 0.911 4.09 1.419 6.245 0.4605 2.04 0.9951 4.165 1.536 6.325 0.5268 2.063 1.058 4.173 1.643 6.361 0.5131 1.932 1.063 3.92 1.62 5.941 0 0.09371 0.06653 0.2008 0.08482 0.2991a722.7 722.7 0 0 0 1.763 6.183 0.3486 0.3486 0 0 0 0.04018 0.1339l0.0023-0.0023c-2.29e-4 0.0083-0.0022 0.01618-0.0023 0.02455 0.09828 0.3028 0.178 0.6064 0.2946 0.9241 0.3964 1.408 0.8365 2.863 1.293 4.332a12.77 12.77 0 0 1-1.592-0.7344c-0.3379-1.168-0.6758-2.335-1.009-3.504-0.1109-0.4114-0.2273-0.7949-0.3393-1.21-0.0094-0.02268-0.02992-0.05469-0.04241-0.08035-0.448-1.584-0.898-3.188-1.346-4.819-0.1291-0.4777-0.2457-0.944-0.3794-1.422-0.5543-2.066-1.108-4.164-1.67-6.281a413 413 0 0 1-1.545-6.154c-0.5085-2.076-0.9953-4.167-1.482-6.252-0.4823-2.088-0.9605-4.271-1.406-6.4-0.4514-2.13-0.8696-4.256-1.29-6.372-0.1508-0.768-0.287-1.513-0.4241-2.286-0.2411-1.303-0.4599-2.619-0.6964-3.942a0.7062 0.7062 0 0 0-0.04464-0.2143l-0.0089-0.0045c0.0011-0.01371 0.0034-0.02631 0.0045-0.04018-0.2903-2.058-0.6066-4.106-0.9152-6.138-0.3002-2.129-0.5731-4.261-0.8214-6.397-0.2534-2.14-0.4531-4.287-0.5981-6.437 0-0.1303-0.02286-0.2585 0-0.3705-0.1647-2.007-0.271-4.018-0.3169-6.031 0.0038-0.0081 0.0097-0.01409 0.01339-0.02232-0.1209-3.878 0.03159-7.76 0.4553-11.61 0.02743-0.2628 0.05357-0.4196 0.05357-0.4196zm81.3 5.451c-3.286 2.82-6.343 5.897-9.142 9.201-2.16e-4 0.0015 2.1e-4 3e-3 0 0.0045-1.537 1.745-3.039 3.52-4.508 5.321-0.09371 0.09828-0.178 0.206-0.25 0.3169-1.542 1.898-3.049 3.824-4.522 5.777-1.37 1.826-2.834 3.768-4.361 5.897-1.327 1.815-2.666 3.766-4.089 5.815l-0.08929-0.0023c0.02286 0.08457-0.0095 0.1289-0.03571 0.1518-0.192 0.272-0.3583 0.5315-0.5491 0.8035-0.5543 0.8342-1.131 1.659-1.688 2.513-0.6229 0.9503-1.251 1.898-1.888 2.839-0.3211 0.4868-0.6474 0.9691-0.9777 1.478-0.9828 1.505-1.969 3.057-2.991 4.656-1.291 2.039-2.563 4.089-3.817 6.152-1.277 2.096-2.54 4.2-3.79 6.312-1.214 2.075-2.46 4.201-3.728 6.402-1.126 1.963-2.259 4-3.428 6.084-0.06285 0.08914-0.1068 0.2098-0.1696 0.3035-1.178 2.127-2.344 4.26-3.496 6.402-0.03212 0.03574-0.05229 0.0794-0.06696 0.125h-0.0045c-0.1737 0.3486-0.3532 0.6563-0.5178 0.9866-0.9142 1.687-1.831 3.428-2.768 5.218 0 0.02286-0.03114 0.0441-0.03571 0.06696-0.1383 0.2628-0.2763 0.4951-0.3883 0.7545-0.6211 1.175-1.165 2.274-2.382 4.618-0.3845-0.3673-0.8064-0.691-1.259-0.962 0.6044-1.15 1.189-2.272 1.824-3.464 0.2503-0.456 0.5176-0.937 0.7678-1.433l0.2098-0.3974c0.9417-1.737 1.911-3.522 2.915-5.348 0.2366-0.4228 0.4555-0.8249 0.6875-1.246v-0.02232l-0.0112-0.03348c7e-3 5.39e-4 0.01313 0.0017 0.02009 0.0023 0.9142-1.67 1.857-3.329 2.794-5.031 0.2503-0.4503 0.5351-0.9147 0.799-1.41 1.197-2.107 2.418-4.232 3.656-6.402 1.199-2.072 2.418-4.132 3.66-6.178 1.254-2.066 2.51-4.144 3.772-6.215 1.298-2.111 2.618-4.205 3.964-6.285 1.343-2.086 2.683-4.112 4.018-6.152 0.4855-0.7356 0.9817-1.465 1.487-2.187 0.8445-1.246 1.711-2.491 2.576-3.728 0.03345-0.06166 0.08192-0.1263 0.1183-0.192 0.0053-0.0019 0.0104-0.0025 0.01562-0.0045 1.396-1.888 2.763-3.8 4.129-5.669 1.455-1.952 2.93-3.89 4.424-5.812 1.5-1.921 3.046-3.807 4.634-5.656 0.08914-0.1154 0.1878-0.2232 0.2723-0.3169 1.473-1.72 2.985-3.407 4.533-5.06 0.02475-0.0043 0.04866-0.0058 0.07365-0.0112 2.983-3.219 6.191-6.221 9.602-8.981zm-64.08 72.85a27.83 27.83 0 0 1 0.2433 0.6361c-0.3316 0.1854-0.6707 0.3586-1.02 0.5178-0.01521 0.0055-0.02734 0.01233-0.04241 0.01785l0.04241-0.04018c-0.06628 0-0.1151 0.05832-0.2054 0.09374a25.35 25.35 0 0 0 0.9821-1.225zm-3.194 8.908a12.67 12.67 0 0 0 1.875 1.656c0.101 0.3311 0.2962 0.951 0.4084 1.31a15.54 15.54 0 0 0-1.332 0.259c-0.06101-0.2044-0.1195-0.3902-0.1808-0.596-0.1337-0.4605-0.2554-0.9155-0.4063-1.375-0.04114-0.1303-0.07161-0.2456-0.1116-0.3839-0.08459-0.29-0.168-0.5803-0.2522-0.8705zm1.382 4.649a15.92 15.92 0 0 1 1.451 0.08262c0.1414 0.4517 0.175 0.5585 0.3616 1.161 0.4297-0.02663 0.858-0.02034 1.283 0.01566-0.5704 1.08-1.143 2.174-1.716 3.281-0.4505-1.459-0.912-2.987-1.379-4.54z" stroke-width="1.143"/></svg>
