<svg version="1.1" viewBox="0 0 128 128" xmlns="http://www.w3.org/2000/svg"><path d="m38 4-36 3.436v114.3s23.7 2.043 30-5.727v-52l-1-2s-5.323 17.61-12.56 31.47a276 276 0 0 1-14.44 24.53s8.866-16.05 13.97-26.88a260.3 260.3 0 0 0 11.9-30.6 3265 3265 0 0 0-11.27-20.3c-6.618-11.81-13.6-28.22-13.6-28.22s42.68 77.23 47 85c1.042 1.782 1.6 2 2 2h19 2c0.4 0 0.969-0.255 2-2 4.073-7.553 44-82 44-82s-5.074 12.43-13.16 27.88c-6.538 12.5-12.84 24.12-12.84 24.12v47l3 7h28v-114l-37-0.01367-24.37 58.37s2.3 5.782 4.227 11.71c2.947 9.073 6.146 19.93 6.146 19.93l-37-93zm86 25a316.9 316.9 0 0 1-9.273 49.01 219.9 219.9 0 0 1-15.73 39.99 396.8 396.8 0 0 0 14-40.93c7.125-25.62 11-48.07 11-48.07z"/></svg>
