<svg version="1.1" viewBox="0 0 128 128" xmlns="http://www.w3.org/2000/svg"><path d="m90.49 57.28c-0.37-4.79-1.496-9.409-3.062-13.93-3.244-10.1-8.45-19.05-15.78-26.74-1.854-1.946-3.916-3.729-5.209-6.151-0.818-1.532-1.597-3.085-2.394-4.629l-0.505-1.273c-0.085 0.292-0.139 0.396-0.142 0.501-0.065 2.517-1.491 4.224-3.267 5.817-1.997 1.793-3.856 3.739-5.775 5.618l-5.901 7.763c-1.592 2.925-3.182 5.85-4.772 8.775l-3.19 8.617c-1.743 6.039-2.747 12.46-3.144 17.82-0.16 2.251 0.022 4.535 0.149 6.798 0.181 3.235 0.743 6.415 1.586 9.545 3.062 11.37 9.276 20.8 17.77 28.82 1.579 1.489 3.241 2.839 4.889 4.256 0.316 0.7876 0.52 1.676 0.759 2.505l0.684 3.884 0.326 4.053c-3e-3 0.823-0.036 1.648 0.014 2.47 0.012 0.21 0.288 0.404 0.442 0.606l1.376 0.483 1.434 0.558-0.246-3.603-0.011-3.548 0.495-5.405 0.359-1.177 1.027-1.82c1.268-1.02 2.629-1.946 3.784-3.081 2.09-2.054 4.175-4.134 6.045-6.383 2.434-2.915 4.512-6.11 6.191-9.516 1.122-2.284 2.178-4.614 3.052-7.001 0.77-2.104 1.247-4.315 1.854-6.479 0.054-0.156 0.126-0.309 0.16-0.468 1.254-5.841 1.465-11.74 1.004-17.68z" /></svg>
