<svg width="128" height="128" version="1.1" viewBox="0 0 128 128" xmlns="http://www.w3.org/2000/svg"><path d="m64.1 10.12-23.11 7.582 61.8 20.52-0.0117 0.0039 0.0234 16.49c0 1e-6 -1.724 0.7502-3.164 2.117-0.954 0.907-3.453-0.1486-5.238-0.6836-0.687-0.204-2.625 2.051-2.625 2.051v-16.26l0.02148-0.0078-61.87-20.6-27.67 9.082v61.51l61.74 24.39 61.74-24.39v-61.48l0.1016-0.03516-61.74-20.3zm-43.29 42.95 2.23 3.043c1.527-0.254 3.066-0.5437 4.867-0.09766l2.297-2.832 2.348 3.695c1.91 0.246 3.601 1.168 5.328 2.078l2.617-2.371 1.582 4.824c1.68 1.61 2.152 2.422 2.82 3.488l2.473-0.8867-1.449 7.961-0.1133 0.2676-3.031 10.98c-2.172 5.597-8.605 6.505-12.57 5.172-3.828-1.285-9.484-5.973-11.26-12.18l-2.365-11.06-0.08789-0.2852-1.09-7.43 1.875 1.613c0.52-0.707 0.8915-1.266 2.23-2.133l1.301-3.855zm6.742 9.203c-4.524-0.0274-7.82 2.564-8.586 6.076l2.172 4.889 3.074 2.246 5.992-3.391 6.344 6.883 3.559-0.4961 2.648-4.057c-1.124-5.152-6.482-10.55-12.55-11.85-0.9209-0.1984-1.808-0.2957-2.652-0.3008z"/></svg>
