<svg version="1.1" viewBox="0 0 128 128" xmlns="http://www.w3.org/2000/svg"><path d="m61.21 0.7441-49.77 28.9 17.41 31.93 35.74-61.53c-0.1956-0.02476-0.1242-0.0439-0.7149-0.04877-0.5907-0.004873-1.817 0.2535-2.666 0.7402zm5.104-0.1406v0.003906l35.2 60.58 16.54-30.45c-0.3087-0.3125-0.6551-0.5862-1.029-0.8164l-25.64-14.89-24.68-14.27h-0.00586c-0.12-0.061-0.2529-0.09939-0.3789-0.1504zm-1.023 0.25-35.87 61.76 35.58 65.28c0.1-0.02 0.1979-0.02378 0.2969-0.05078l35.65-65.62zm-54.71 29.32c-1.502 1.031-2.35 2.753-2.35 4.596v58.48c0 0.93 0.2536 1.839 0.6836 2.646l19.34-33.29zm108.2 1.395c-5.562 10.03-11.1 20.46-16.63 30.63l17.66 30.4v-57.83c0-1.15-0.3923-2.269-1.027-3.199zm-17.19 31.67-34.78 64.05c16.76-9.731 33.52-19.47 50.28-29.2 1.402-0.793 2.3-2.155 2.604-3.693zm-72.72 0.3945-19.28 33.2c0.406 0.5 0.8847 0.9356 1.43 1.266 16.55 9.653 33.13 19.25 49.7 28.87 0.1779 0.1036 0.3587 0.2045 0.5371 0.3066 0.2631 0.1591 0.5595 0.2621 0.7988 0.3711 0.3288 0.1158 0.4258 0.1416 0.8086 0.2363 0.242 0.051 0.4845 0.08742 0.7285 0.1074 0.118 0.01 0.2355 0.00977 0.3535 0.00977z"/></svg>
