<svg width="128" height="128" version="1.1" viewBox="0 0 128 128" xmlns="http://www.w3.org/2000/svg"><path d="m65.88 0.3691c-70.98-1.368-91.76 98.15-23.33 123.9 5.562-17.24 14.06-27.91 23.94-35.26l0.01172 38.96c17.29-0.636 33.57-8.477 45.02-20.64 40.35-41.53 0.7128-119.2-55.95-79.1-0.387-11.06 6.127-19.57 13.73-27.69-1.152-0.07325-2.291-0.1209-3.418-0.1426zm-29.43 35.27c-3.937 14.7-2.035 24.35 2.438 31.8 0.03029-0.04783 0.06144-0.09293 0.0918-0.1406 13.77-19.81 44.43-33.57 66.46-19.73 1.898 2.148 2.751 5.148 3.051 8.273 0.614 16.19-6.437 40.47-21.84 47.98l0.01562-14.84c-0.004222-0.03389-0.01123-0.06403-0.01562-0.09766l0.02734-11.13 0.01172-13.62c-18.64 0.086-36.57 4.523-50.82 31.21-17.86-20.85-15.79-40.65 0.5859-59.7z"/></svg>
