<svg version="1.1" viewBox="0 0 128 128" xmlns="http://www.w3.org/2000/svg"><path d="m53.45 15.63c-1.703 0-4.254 0.5669-6.24 4.256l-45.96 81.43c-0.284 0.85-2.27 4.54-0.5684 7.66 1.135 1.702 2.838 3.404 6.811 3.404h38.3l53.63-9.7e-4c0.004541 0 20.98-9.8e-4 20.98-9.8e-4 0.851 0 4.824-0.2833 6.811-3.404 0.85-1.418 1.418-3.971-0.5684-7.375l-36.88-66.39c-0.567-0.568-2.554-4.258-6.242-4.258-1.702 0-4.256 0.8519-6.242 4.256l-4.68 7.711-12.91-23.31c-0.283-0.567-2.554-3.971-6.242-3.971zm0 8.512 14.76 26.66-28.94 50.51-1.135 3.404h-30.07zm30.07 15.32 36.6 65.26h-13.05l-1.133-3.402-28.94-50.5-0.03906-0.07031zm-11.06 19.01 26.38 46.25h-52.77z"/></svg>
