<svg width="128" height="128" version="1.1" viewBox="0 0 128 128" xmlns="http://www.w3.org/2000/svg"><path d="m101 16.8c-1.469-0.00725-2.91-0.002016-2.994 0.02148-0.199 0.055-0.375 0.1997-0.457 0.3867l-0.07812 0.1641 0.01172 1.652 0.007812 1.652 0.08203 0.1406a0.71 0.71 0 0 0 0.4531 0.332c0.09 0.019 0.9181 0.03125 2.246 0.03125 1.273 4e-3 2.238 0.01516 2.441 0.03516 1.094 0.109 2.008 0.4003 2.672 0.8613 0.418 0.289 0.8908 0.8306 1.219 1.393 0.278 0.476 0.4808 1.103 0.5938 1.857l0.07031 14.77c0.016 11.18 0.02759 14.49 0.05859 14.75 0.219 1.941 0.6795 3.336 1.645 4.949a13.31 13.31 0 0 0 2.902 3.445c0.399 0.336 0.5157 0.5855 0.4297 0.8945-0.051 0.184-0.1782 0.3435-0.5332 0.6445-1.297 1.102-2.443 2.57-3.271 4.207-0.645 1.266-0.9809 2.442-1.172 4.098l-0.05468 14.74c-0.019 13.5-0.02322 14.45-0.07422 14.78-0.133 0.871-0.3629 1.523-0.7539 2.105-0.476 0.715-0.9063 1.107-1.57 1.443-0.559 0.281-1.36 0.4885-2.18 0.5625l-2.441 0.03516c-1.313 0-2.137 0.01125-2.227 0.03125a0.71 0.71 0 0 0-0.4531 0.332l-0.08203 0.1406-0.007812 1.656-0.01172 1.656 0.08203 0.1641a0.69 0.69 0 0 0 0.4062 0.3633v0.00391c0.09 0.03499 0.6208 0.04296 2.715 0.04296 2.668 4e-3 3.211-0.01609 3.953-0.1211 1.176-0.168 2.246-0.5708 3.141-1.176 0.523-0.352 0.7812-0.5668 1.324-1.094 0.785-0.765 1.285-1.441 1.734-2.328 0.664-1.316 1.008-2.648 1.207-4.66l0.05469-13.55c0.019-12.18 0.02322-13.22 0.07422-13.66 0.207-1.86 0.5586-2.943 1.434-4.396 1.446-2.403 3.371-4.438 5.18-5.473 0.398-0.231 0.5122-0.4097 0.4922-0.7617-0.012-0.25-0.117-0.4217-0.332-0.5547-0.074-0.047-0.2659-0.1677-0.4219-0.2617-1.719-1.066-3.563-3.054-4.918-5.316-0.875-1.457-1.227-2.536-1.434-4.395l-0.07422-13.66c-0.012-9.821-0.02769-13.28-0.05469-13.55-0.156-1.562-0.395-2.687-0.793-3.73a9.37 9.37 0 0 0-1.449-2.52c-0.312-0.371-1.07-1.117-1.449-1.414-1.203-0.961-2.422-1.445-4.176-1.656-0.199-0.0255-1.697-0.04548-3.166-0.05273zm-73.84 0.007812c-3.008 0-3.161 0.003625-3.977 0.1406a7.52 7.52 0 0 0-2.621 0.9375c-0.911 0.543-1.971 1.516-2.643 2.43-0.903 1.223-1.531 2.875-1.801 4.719l-0.168 14.37c-0.016 9.895-0.03159 13.27-0.05859 13.59-0.156 1.765-0.387 2.683-0.957 3.855-0.731 1.5-1.926 3.14-3.27 4.484-0.832 0.836-1.425 1.321-2.148 1.762-0.559 0.34-0.5976 0.3715-0.6836 0.5195-0.07 0.117-0.08594 0.1765-0.08594 0.3555s0.01603 0.2385 0.08203 0.3555c0.086 0.144 0.1675 0.2071 0.5195 0.4141 1.738 1.016 3.711 3.122 5.09 5.434 0.804 1.351 1.171 2.398 1.355 3.867l0.1562 14.49c0.02 14.23 0.007969 13.27 0.168 14.37 0.27 1.844 0.9028 3.504 1.801 4.719 0.437 0.598 1.105 1.285 1.746 1.797 1.281 1.035 2.695 1.562 4.543 1.695h0.001954c0.195 0.015 1.582 0.02343 3.086 0.02343l2.734-0.0039 0.125-0.07031a0.76 0.76 0 0 0 0.3516-0.3984c0.035-0.09 0.04297-0.4496 0.04297-1.727 0-1.777 0.009641-1.707-0.1934-1.941s-0.07661-0.2222-2.725-0.2422c-2.23-0.016-2.384-0.01994-2.779-0.08593-1.246-0.199-2.151-0.6211-2.764-1.289-0.457-0.5-0.8374-1.137-1.025-1.707-0.086-0.274-0.2086-0.8357-0.2676-1.262l-0.05859-14.74c-8e-3 -7.953-0.02706-14.52-0.03906-14.58l-0.07031-0.5078c-0.227-1.817-0.8948-3.496-2.094-5.258-0.64-0.933-1.453-1.836-2.359-2.609-0.383-0.328-0.4488-0.43-0.4648-0.707-0.019-0.325 0.03884-0.4105 0.5898-0.8945a13.23 13.23 0 0 0 2.777-3.352c0.985-1.645 1.485-3.227 1.633-5.172l0.03125-14.26c0-8.992 0.01125-14.02 0.03125-14.34 0.09-1.438 0.4067-2.332 1.137-3.227 0.738-0.902 1.816-1.391 3.418-1.547l2.418-0.03125c1.386 0 2.133-0.01216 2.238-0.03516 0.203-0.043 0.3903-0.1879 0.4883-0.3789l0.07812-0.1523v-1.611c0-1.281-0.007968-1.636-0.04297-1.73a0.76 0.76 0 0 0-0.3516-0.3984l-0.125-0.06641h-2.871zm37.46 15.62c-7.302-0.139-14.5 2.249-20.29 6.887a31.63 31.63 0 0 0-4.5 4.406c-3.844 4.633-6.363 10.47-7.133 16.54-0.183 1.465-0.2461 2.434-0.2461 4.008 0 1.894 0.1094 3.265 0.3984 5.035 0.871 5.278 3.11 10.21 6.555 14.43 3.875 4.75 8.816 8.207 14.46 10.11 2.917 0.9838 5.687 1.5 8.92 1.652h0.001953l1.131 0.01562a31.41 31.41 0 0 0 1.545-0.1172c0.2386-0.008034 0.5524-0.002437 0.6855-0.01172 0.5289-0.03806 1.044-0.09755 1.559-0.1582a31.41 31.41 0 0 0 2.348-0.3555c0.876-0.1698 1.74-0.3863 2.6-0.6309a31.41 31.41 0 0 0 2.453-0.8086c0.8512-0.3195 1.687-0.6673 2.502-1.057a31.41 31.41 0 0 0 2.059-1.088c0.7983-0.4582 1.579-0.9439 2.336-1.473a31.41 31.41 0 0 0 0.9238-0.582c3.106-2.332 5.809-5.27 7.836-8.512a31.48 31.48 0 0 0 0.6562-1.252c0.3368-0.5953 0.6559-1.201 0.9531-1.818a31.48 31.48 0 0 0 1.066-2.48c0.1704-0.4497 0.3397-0.9 0.4902-1.359 0.05882-0.1786 0.1029-0.3553 0.1582-0.5332a31.48 31.48 0 0 0 0.7188-2.762c0.1302-0.6157 0.2416-1.244 0.3359-1.881a31.48 31.48 0 0 0 0.2656-1.484c0.121-1.207 0.1406-1.652 0.1406-3.18 0-1.528-0.01962-1.973-0.1406-3.176-0.594-5.903-2.84-11.52-6.473-16.18-4.312-5.535-10.29-9.461-17.03-11.19-2.409-0.618-4.855-0.9458-7.289-0.9922zm-0.5859 15.78c3.089 4e-3 6.147 0.9262 8.686 2.617 3.301 2.195 5.666 5.539 6.6 9.328 0.4612 1.861 0.5787 3.767 0.3613 5.639a16.08 16.08 0 0 1-0.5723 2.727c-0.04174 0.1385-0.07546 0.2783-0.1211 0.416a15.75 15.75 0 0 1-13.98 10.77 20.18 20.18 0 0 1-1.811 0.01367c-2.235-0.136-4.205-0.6525-6.143-1.605-4.129-2.035-7.192-5.813-8.309-10.26-0.344-1.367-0.4727-2.426-0.4727-3.883a14.78 14.78 0 0 1 0.1465-1.965 15.66 15.66 0 0 1 0.08594-0.748 14.78 14.78 0 0 1 0.5059-2.014 15.66 15.66 0 0 1 0.2031-0.5625 15.76 15.76 0 0 1 14.82-10.48z" /></svg>
