<svg version="1.1" viewBox="0 0 128 128" xmlns="http://www.w3.org/2000/svg"><path d="m64 0.007812c-16.01-0.08155-31.92 6.188-43.59 17.14-11.98 11.06-19.45 26.86-20.3 43.15-0.9657 15.64 4.094 31.55 13.96 43.73 10.37 13.02 25.99 21.72 42.55 23.54 18.8 2.231 38.48-4.343 51.99-17.68 10.96-10.58 17.93-25.2 19.16-40.39 1.285-14.52-2.571-29.43-10.82-41.45-2.894-4.22-6.261-8.142-10.1-11.53 0.0091-0.00792 0.02445-0.01338 0.0332-0.02148-11.32-10.21-26.63-16.31-41.88-16.49-0.3349-0.005133-0.6689-0.00851-1.004-0.007812zm1.064 16.81c6.27 0.099 12.39 2.743 17.11 6.838 7.877 6.77 12.59 16.58 14.79 26.6 2.821 13.28 1.617 27.56-4.193 39.89-3.767 7.907-9.724 15.18-17.86 18.83-6.513 2.985-14.3 2.925-20.77-0.1426-8.061-3.742-13.95-11.04-17.66-18.95-5.451-11.7-6.724-25.12-4.447-37.76 1.661-9.005 5.352-17.75 11.34-24.74 0.1273-0.1587 0.267-0.2961 0.3965-0.4512-0.2695 0.3272-0.543 0.6489-0.8066 0.9844 4.863-5.806 11.74-10.29 19.41-10.98 0.8982-0.09297 1.798-0.1313 2.693-0.1172z"/></svg>
