<svg version="1.1" viewBox="0 0 128 128" xmlns="http://www.w3.org/2000/svg"><path d="m55.33 24.15c-1.367-0.085-2.025 1.374-2.523 2.417-1.709 3.617-3.033 7.401-4.221 11.22-7.346 4.615-15.9 7.294-24.56 7.744-3.806 0.2117-7.634-0.09599-11.36-0.9149-1.089-0.1343-2.358-0.5607-3.355 0.09134-0.864 0.8867-0.4464 2.253-0.3995 3.355 0.5322 4.849 1.626 9.627 2.998 14.3 2.268 7.303 5.58 14.37 10.36 20.37 3.717 4.621 8.658 8.57 14.55 9.883 4.608 1.059 9.491 0.4093 13.84-1.37 2.769 4.136 6.663 7.519 11.2 9.589 6.362 2.917 13.76 3.922 20.55 2.016 7.512-2.075 13.69-7.375 18.38-13.44 6.042-7.872 10.22-17.05 13.08-26.51 1.802-6.379 3.302-12.88 3.823-19.51 0.1222-1.125-0.08235-2.715-1.44-2.947-1.973-0.2825-3.921 0.4075-5.855 0.6968-7.688 1.434-15.65 0.9614-23.27-0.6607-5.205-1.136-10.27-2.906-15.07-5.224-4.565-2.249-8.902-5.009-12.67-8.447-1.251-0.9916-2.424-2.354-4.058-2.666zm7.154 26c3.623 0.05585 7.133 2.111 8.9 5.285 0.971 1.68 1.59 3.567 1.798 5.496-6.635-1.885-13.27-3.77-19.91-5.654 2.081-2.959 5.494-5.227 9.209-5.127zm-27.62 6.125c-0.3459 3.259-2.565 6.38-5.792 7.292-2.842 0.9748-6.089 0.1362-8.261-1.889-0.3523-0.4455-1.893-1.449-0.6738-1.523 4.909-1.293 9.818-2.587 14.73-3.88zm58.3 3.08c3.623 0.05885 7.127 2.119 8.895 5.29 0.9732 1.68 1.594 3.567 1.804 5.497-6.634-1.889-13.27-3.779-19.9-5.668 2.08-2.959 5.485-5.222 9.203-5.119zm-48.86 11.39c0.1886 2.619 0.5498 5.228 1.119 7.791-4.546 1.288-9.091 2.577-13.64 3.865 1.206-5.128 5.376-9.23 10.27-10.97 0.7398-0.2558 1.47-0.5537 2.244-0.6906zm12.04 0.9258c11.75 3.283 23.51 6.569 35.26 9.855-4.209 4.332-10.63 6.112-16.53 5.209-6.221-0.8853-12.31-3.984-15.97-9.203-1.24-1.775-2.249-3.748-2.756-5.861z"/></svg>
