<svg width="136.8" height="136.8" version="1.1" viewBox="0 0 136.8 136.8" xmlns="http://www.w3.org/2000/svg"><path d="m6.217 0c-3.444 0-6.217 2.773-6.217 6.217v124.3c0 3.444 2.773 6.217 6.217 6.217h124.3c3.444 0 6.217-2.773 6.217-6.217v-124.3c0-3.444-2.773-6.217-6.217-6.217zm24.87 24.87a6.217 6.217 0 0 1 6.217 6.217 6.217 6.217 0 0 1-6.217 6.217 6.217 6.217 0 0 1-6.217-6.217 6.217 6.217 0 0 1 6.217-6.217zm24.87 0a6.217 6.217 0 0 1 6.217 6.217 6.217 6.217 0 0 1-6.217 6.217 6.217 6.217 0 0 1-6.217-6.217 6.217 6.217 0 0 1 6.217-6.217zm24.87 0a6.217 6.217 0 0 1 6.217 6.217 6.217 6.217 0 0 1-6.217 6.217 6.217 6.217 0 0 1-6.217-6.217 6.217 6.217 0 0 1 6.217-6.217zm24.87 0a6.217 6.217 0 0 1 6.217 6.217 6.217 6.217 0 0 1-6.217 6.217 6.217 6.217 0 0 1-6.219-6.217 6.217 6.217 0 0 1 6.219-6.217zm-74.6 24.87a6.217 6.217 0 0 1 6.217 6.217 6.217 6.217 0 0 1-6.217 6.217 6.217 6.217 0 0 1-6.217-6.217 6.217 6.217 0 0 1 6.217-6.217zm24.87 0a6.217 6.217 0 0 1 6.217 6.217v49.73a6.217 6.217 0 1 1-12.43 0v-49.73a6.217 6.217 0 0 1 6.217-6.217zm24.87 0a6.217 6.217 0 0 1 6.217 6.217 6.217 6.217 0 0 1-6.217 6.217 6.217 6.217 0 0 1-6.217-6.217 6.217 6.217 0 0 1 6.217-6.217zm24.87 0a6.217 6.217 0 0 1 6.217 6.217v49.73a6.217 6.217 0 0 1-12.43 0v-49.73a6.217 6.217 0 0 1 6.217-6.217zm-74.6 24.87a6.217 6.217 0 0 1 6.217 6.217v24.87a6.217 6.217 0 1 1-12.43 0v-24.87a6.217 6.217 0 0 1 6.217-6.217zm49.73 0a6.217 6.217 0 0 1 6.217 6.217v24.87a6.217 6.217 0 1 1-12.43 0v-24.87a6.217 6.217 0 0 1 6.217-6.217z"/></svg>
