<svg width="128px" height="128px" version="1.1" viewBox="0 0 128 128" xmlns="http://www.w3.org/2000/svg"><path d="m66.59 2.32-0.02539 5.224-31.39 18.09h-15.25v3.859h27.52v18.69h9.971v-18.69h9.18v53.53c0.14 0 2.769-0.0493 3.859 0.4707v-54h2.721v54.52c1.51 0.75 2.829 1.6 3.859 2.77v-57.29h31.05v-3.859h-6.5l-31.13-17.99v-5.318zm0 9.607v13.7h-23.71zm3.859 0.166 23.42 13.54h-23.42zm-21.13 17.4h6.209v8.66h-6.209zm-24.32 14.03v10.03h9.971v-10.03zm11.25 0v10.03h9.971v-10.03zm-11.25 11.16v10.03h9.971v-10.03zm11.25 0v10.03h9.971v-10.03zm11.19 0v10.03h9.971v-10.03zm-22.67 11.53c-1.65 2.87-2.539 6.17-2.539 9.51 0 6.31 3.109 11.87 7.809 15.35 1.22-0.33 2.441-0.5205 3.721-0.5605 0.51 0 0.8394 0.03984 1.359 0.08984 1.46-6.12 7.101-10.22 13.69-10.22 3.72 0 7.389 1.039 9.879 3.439 1.17-2.45 1.551-5.18 1.551-8.1 0-3.34-0.851-6.64-2.541-9.51zm24.79 16.25c-6.21 0-11.44 4.329-12.8 10.12-0.47-0.09-0.9402-0.09102-1.41-0.04102-7.29 0-13.17 5.891-13.17 13.14 0 7.25 5.93 13.14 13.17 13.14 0.94 0 1.84-0.09125 2.73-0.2812 2.21 4.24 6.629 7.16 11.71 7.16 4.43 0 8.33-2.219 10.73-5.559 2.25 1.88 5.171 3.01 8.371 3.01 7.25 0 13.13-5.891 13.13-13.14 0-2.92-0.9898-5.65-2.59-7.82 0.47-1.36 0.7012-2.769 0.7012-4.279 0-7.26-5.881-13.14-13.12-13.14-2.77 0-5.31 0.8505-7.43 2.311-2.45-2.83-6.02-4.619-10.02-4.619z"/></svg>
