<svg version="1.1" viewBox="0 0 128 128" xmlns="http://www.w3.org/2000/svg"><path d="m61.97 0.03516c-4.104 0.2421-8.148 1.069-12.25 1.381-4.483 0.756-9.021 1.514-13.23 3.313-3.461 1.386-6.728 3.203-9.788 5.329-4.065 2.696-7.959 5.77-10.91 9.692-4.18 4.706-7.766 9.941-10.51 15.61-1.211 2.372-2.396 4.764-3.129 7.335-1.477 4.554-2.514 9.342-2.055 14.15 0.06132 1.725 0.2445 3.411 0.6794 5.071 0.1291 1.657 0.7569 3.201 0.7904 4.856 0.3303 1.576 0.5702 3.814 1.046 5.107 1.375 0.7482 0.743 2.89 1.52 4.067-0.1234-1.219-0.4294-2.775 1.225-1.796 0.347-0.6867-0.7128-1.567-0.7019-0.7245-0.2464-0.5189-0.2113-1.801-0.2017-1.788 1.278-1.392-0.6701-3.293-0.3777-4.965-0.1063-0.8268 0.2409-2.739-0.5003-2.86-0.7852 0.7256 0.1541 3.372 0.07505 3.091-0.1441-0.6077-0.5966-3.467-0.6601-1.391-0.6576 0.1587-0.3889 0.7929-0.6695 1.235-0.789-1.06-1.434-3.344-0.5317-4.142 0.3728-1.736 2.17-2.989 1.924-5.091 0.1981-2.426 0.221-4.892 0.9719-7.237 0.9677-3.225 2.218-6.366 3.56-9.452 2.191-4.519 4.798-8.828 7.529-13.04 2.03-3.125 4.477-5.973 7.326-8.379 2.964-2.775 6.091-5.411 9.648-7.4 4.399-2.647 9.222-4.543 14.21-5.732 2.043-0.6351 4.175-0.7639 6.296-0.8421 1.744-0.1526 3.476-0.4198 5.225-0.5127-2.355 3.566-5.086 6.868-7.368 10.48-2.304 3.138-4.894 6.056-7.104 9.266-2.893 3.811-5.812 7.612-8.334 11.68-2.834 4.248-5.719 8.466-8.703 12.61-0.4652 0.9113-1.735 3.493-2.021 3.212 0.5828-1.889-1.253 0.7224-0.9149 1.505-0.4109 0.8387-0.04316 0.2688 0.1573 0.5827 0.02406 0.633-2.103 2.325-0.4827 1.772 1.515-1.862 3.488-3.292 4.967-5.193 2.817-3.264 5.127-6.936 8.041-10.12 0.1783 3.691-0.5068 7.356-0.4337 11.05-0.0272 2.377-0.5119 4.734-0.2269 7.112-0.01077 2.104 0.2338 4.223-0.07766 6.316 0.7087-1.436 0.3087-3.135 0.4861-4.674-0.04749-0.9468 0.04155-3.267 0.2866-3.317-0.04372 2.709 0.08512 5.442-0.391 8.123-1.093 1.609-0.2182 3.576-0.2412 5.345 0.3255 0.6709 0.4988-1.651 0.5022-2.069-0.0407-0.7152 0.216-3.219 0.2066-1.272 0.06489 2.38 0.01717 4.791-0.6124 7.102-0.1672 1.371 0.1429 2.738 0.02207 4.091-0.5611 1.531 1.409 2.195 0.6789 3.832-0.3153 1.724 0.1103 3.487-0.1821 5.206-0.2139-0.5624-0.1367-2.981-0.2093-4.255 0.4251-0.9809-0.7506-1.518-0.7627-0.3325 0.1835 2.013 0.08238 4.054-0.1533 6.066-0.4 1.291-2.648 0.4817-3.846 0.7425-4.069-0.03941-8.142 0.2367-12.21 0.03674-3.992 0.2056-8.025 0.02008-11.97 0.7363-1.588 0.05022-2.721 1.674-1.084 2.017 2.022-0.2636 4.024 0.6 6.062 0.736 4.58 0.3819 9.185 0.5762 13.78 0.3451 12.13 0.3596 24.25-0.5645 36.38-0.5634 5.587-0.1373 11.14-0.8248 16.72-1.022 3.99-0.2891 7.988-0.4281 11.99-0.4365 1.987-0.06218 3.973-0.1394 5.958-0.2336-0.1914-1.06-0.3828-2.12-0.5742-3.18-1.023-0.1157-2.805 0.425-3.296-0.4899-0.3182-2.257 0.2032-4.532 0.05585-6.799 1.148 1.228 0.625-2.906 1.046-0.6691 0.6424 0.6406-0.1177-1.584-0.1108-2.087-0.1647-1.187 0.4217-2.648-0.587-3.592-0.2866 1.186-1.008-2.495 0.3008-1.25-0.7164-0.9517-0.6235-2.101-0.6055-3.213 0.085-0.8498 0.4106-1.234-0.1196-2.225 0.0489-0.7856 0.108-1.588 0.07666-2.396 0.02289-0.6616-0.0819-1.365 0.1599-0.1929 0.6007 0.9597 0.03453-1.775-0.1011-2.294 0.08068-3.235 0.1614-6.47 0.242-9.705 1.497 1.855 2.536 4.033 4.093 5.846 4.166 5.769 7.582 12.05 11.97 17.66 2.068 2.68 4.038 5.438 6.038 8.162 0.6919 0.7757 2.764 2.517 1.084 2.895-4.73-0.06731-9.462-0.03169-14.19 0.01796-1.712-0.02985-3.391 0.4611-5.098 0.2335-1.118-0.1989-0.8533 0.9463-0.6818 1.606 0.1003 0.5556 0.2007 1.111 0.301 1.667 4.187-0.1579 8.362-0.5799 12.56-0.5606 1.858-0.07125 3.726-0.1686 5.579 0.04104-0.2812 0.2318-1.205 0.8225-0.3047 0.9062-0.8747-0.2666-1.258 1.389-0.1719 0.9531-0.9102 0.3868-1.667 1.003-1.773 1.746-0.664 0.7479-1.636 1.629-1.326 2.338-1.309 0.2281-0.4205 1.915-1.547 2.38-0.7499 1.71-2.038 3.235-3.469 4.44-1.971 1.566-3.46 3.706-5.68 4.961-1.07 0.6175-0.3509 1.758-0.2792 2.677 0.2695 1.495 0.5389 2.99 0.8084 4.485 1.469-1.424 3.323-2.441 4.723-3.86 1.384-1.269 2.888-2.406 4.122-3.836 3.085-3.18 5.807-6.727 7.846-10.67 1.078-1.935 2.06-3.923 3.224-5.809 1.302-0.5525 3.783 0.1197 4.358-1.029-0.8619-1.64-2.689-3.12-2.231-5.16 0.3701-1.428 1.155-2.722 1.447-4.171 1.523-4.02 1.72-8.366 2.276-12.59 0.4483-3.742 0.4338-7.516 0.1878-11.27-0.2039-6.628-0.8412-13.37-3.374-19.56-1.36-3.551-3.007-7.002-5.199-10.12-1.936-2.82-3.872-5.649-6.168-8.191-1.24-1.46-2.225-3.138-3.772-4.314-2.883-2.436-6.096-4.447-9.255-6.497-2.493-1.373-5.09-2.583-7.725-3.644-5.003-1.517-9.878-3.699-15.16-4.086-4.007-0.444-8.024-0.8161-12.06-0.8425-1.022-0.03427-2.044-0.06949-3.066-0.08851zm39.82 115.7c-0.6913 1.566 1.652-0.4762 0.324 0.1727-0.09561 0.0593-0.4696 0.06886-0.324-0.1727zm-0.0039 0c-0.3978-2.206-0.7956-4.413-1.193-6.619-2.894 2.127-5.903 4.104-9.099 5.745-1.492 1.172-3.192 1.974-4.995 2.53-2.742 1.021-5.339 2.515-8.285 2.886-3.956 0.633-7.946 1.02-11.91 1.588-1.934 0.05323-3.916 0.2228-5.831-0.1453-1.808-0.5434-3.743-0.2363-5.563-0.7074-2.335-0.2975-4.514-1.297-6.868-1.456-1.776-0.4127-3.566-0.8833-5.101-1.939-1.59-0.7721-2.985-1.992-4.766-2.305-0.8764-0.3549 0.3153 0.6364-0.6206 0.02061-1.615-0.824-3.191-1.732-4.676-2.774-1.953-0.2795-3.434-1.786-5.1-2.719-1.347-1.381-2.874-2.511-4.583-3.39-1.087-0.9639-1.604-2.226-2.957-2.929-0.8763-1.031-2.143-1.528-3.054-2.515-1.44-1.623-2.582-3.496-3.994-5.131-0.2333-0.1213 0.7126 1.601-0.2414 0.6796-0.4817-0.1777 0.9365 1.678 1.139 2.194 0.5167 1.143 2.042 2.832 1.961 3.61-1.069-0.4183-1.811-1.853-2.792-1.994 0.3338-1.061-2.414-1.122-1.24-0.1416 0.6202 0.8502 2.17 1.86 2.021 2.235 1.067 1.331 2.415 2.405 3.293 3.891 0.8032 1.711-2.127-1.844-0.9959-0.1459 1.144 1.417 2.368 2.882 3.894 3.858 0.6979 0.2692 1.852 0.05455 1.854 0.6365 0.4046-0.3314 1.454 1.481 2.165 1.945 2.805 2.784 6.256 4.75 9.687 6.649 2.65 1.632 5.404 3.135 8.407 4.013 2.755 0.9094 5.648 1.289 8.389 2.247 2.349 0.6322 4.767 1.079 7.194 1.237 1.821-0.05277 3.715 0.1824 5.475 0.2808 1.213-0.31 0.2059 0.944 1.528 0.7488 1.791 0.1518 3.554-0.3125 5.349-0.1778 1.505-0.113 2.975-0.5154 4.466-0.7516 1.424-0.5148 3.484-0.2878 4.601-0.8963-1.684-0.03394 0.3383-1 0.7591-0.5862-0.9562 1.382 1.51-0.1969 2.212 0.03383 1.074 0.09714 1.949-1.127 2.34-1.488-0.8628 0.1582-1.311 0.344-0.2296-0.1431 0.9242-0.4571 2.917-1.4 3.27-1.406-0.8977 0.7695 0.9973 0.4183 1.105-0.2687 1.753-0.4713 3.388-1.13 5.007-1.932 1.653-0.2597 2.584-1.753 4.089-2.347 0.9795-0.924 3.204-0.7867 3.565-1.826-0.5555-0.1726 0.07709-0.1867 0.3261-0.2947zm-5.764 3.256c0.3755 0.7695 1.877-0.257 0 0zm4.57-9.875c-1.059-5.917-2.127-11.83-3.199-17.75 1.066 5.916 2.133 11.83 3.199 17.75zm-3.77-20.93c-0.837-4.631-1.665-9.264-2.508-13.89 0.8372 4.631 1.664 9.264 2.508 13.89zm-2.508-13.89c-0.7838-0.7156-0.5564 0.6452 0 0zm-70.4-20.28c0.5452-1.397-2.535-0.5729-1.236 0.7272 0.5258 0.9572 0.8499-0.4895 1.236-0.7272zm41.75-49c3.76 0.4936 7.579 0.4643 11.3 1.241 7.722 1.215 15 4.292 21.87 7.931 2.102 0.9497 3.891 2.367 5.315 4.181 3.582 3.667 6.699 7.753 9.995 11.67 1.461 2.146 3.124 4.262 3.67 6.863 1.128 3.28 2.198 6.615 2.452 10.1 0.2213 1.3 0.247 3.45 1.107 3.551 0.5054 2.449 0.4586 4.988 0.3359 7.469-0.1476 1.187-0.4357 0.7657-0.3094-0.1331-0.9367-1.405-1.112 2.456 0.1986 1.278-1.107 1.217 0.659 2.689-0.1263 3.712-1.173-1.158-0.6371 1.618-0.3511 2.152 1.138 0.6987-0.4189 2.954-0.1025 4.456-0.2232 2.06 0.1441 4.338-0.7511 6.229-0.05199-0.526-0.694-2.356-0.7774-0.9337 0.1228 0.4693 0.6586 1.787-0.3394 1.361 0.2504 0.9844-1.196 3.718 0.08468 3.45-0.08869-0.719 0.6563-3.192 0.425-1.304-0.1132 0.7491 0.3988 2.423-0.5643 2.067 0.279 1.647-1.113-1.072-1.569-1.511-3.267-4.706-6.09-9.714-9.573-14.27-2.251-3.398-4.485-6.813-6.923-10.08-2.051-3.395-4.033-6.86-6.514-9.962-1.313-2.22-0.7182-4.87-0.7665-7.309 0.627-1.813-2.216-0.5868-3.289-0.9461-2.194 0.1249-3.156-2.31-4.32-3.764-4.321-6.45-9.166-12.53-13.68-18.84-2.208-2.929-4.392-5.882-6.8-8.653zm-4.006 2.271c1.862 2.016 3.388 4.312 5.159 6.406 5.585 7.358 10.45 15.23 15.7 22.82-0.8137 0.5068-3.306 0.0301-4.763 0.1106-4.822-0.2761-9.598 0.6092-14.41 0.7821-3.814 0.2812-7.644 0.0479-11.45 0.4122-4.284 0.2493-8.593 0.4944-12.87 0.3944 0.3528-1.197 1.766-2.416 2.483-3.644 1.173-1.558 2.216-3.217 3.465-4.706 0.7716-1.278 1.709-2.256 2.713-3.326 0.9551-1.183 1.046-2.659 2.332-3.765 0.6477-0.8095 1.086-1.416 1.159-0.8943 0.3925-0.4699 2.182-2.623 0.6161-1.305 0.3817-0.9044 1.365-1.924 1.683-1.384 0.2037-0.2928 0.517-1.051-0.1137-0.4776 0.8061-1.635 2.056-3.069 3.06-4.607 1.407-1.798 2.491-3.829 4.007-5.553 0.4079-0.3995 0.6787-1.079 1.237-1.264zm-12.18 16.84c-1.064-0.009161-0.7014 1.844-0.2232 0.4563 0.06414-0.1054 0.4891-0.3152 0.2232-0.4563zm36.45 17.81c1.644 0.8188 2.351 2.782 2.171 4.53 0.1254 2.528 0.2414 5.057 0.1751 7.586-0.04359 1.272 0.2472 3.692-0.04666 4.251-0.778-1.624-1.032-3.48-2.126-4.958-1.391-2.107-2.686-4.32-4.576-6.03-1.406-1.475-3.135-2.596-5.022-3.345-1.047-0.5648-3.204-1.238-3.538-1.778 4.321-0.04647 8.643-0.124 12.96-0.2556zm-32.43 1.125c1.788-0.1028-0.8854 0.9078-1.26 1.348-2.008 1.377-3.762 3.057-5.364 4.881-1.793 1.889-3.599 3.797-4.913 6.062-0.7701 0.7947-0.08192-1.899-0.2138-2.628 0.1511-3.029 0.2563-6.064 0.1357-9.096 3.871-0.1987 7.743-0.3959 11.62-0.5664zm10.83 2.211c2.762 0.007375 5.733 0.02239 8.084 1.693 2.149 1.327 4.234 2.77 6.292 4.226 1.627 1.53 2.931 3.411 3.947 5.387 0.4674 1.959 1.384 3.956 1.117 5.984-0.4249 1.758-0.4798 3.555-0.7228 5.336 0.0355 1.306-1.399 2.426-1.14 3.568 0.8932-1.268-0.1188 1.282-0.2826 1.709-0.7293 2.082-1.658 4.118-3.043 5.848-0.9467 1.736-2.415 3.08-4.084 4.102-1.746 1.272-3.772 2.097-5.887 2.497-3.785 0.9379-7.757 0.7671-11.59 0.2855-2.225-0.5147-4.256-1.631-6.274-2.658-1.386-0.9138-2.335-2.332-3.681-3.296 0.1995 0.5701 1.277 1.883 0.1113 0.9286-0.7677-0.3639-0.006457-1.697-0.8353-2.423-0.7462-1.456-1.801-2.718-2.69-4.084-0.01507 1.233-1.288-3.054-0.8224-0.9019 0.1869 0.69 0.3738 1.38 0.5606 2.07-0.4302-1.067-1.715-0.7451-0.9603 0.3325 0.8198 1.929 1.642 3.921 3.135 5.442 0.5285 1.248 1.692 2.305 2.644 2.728 0.2311 0.6159 2.438 2.361 0.6571 1.559-0.7735 0.07825 1.409 0.7739 1.659 1.199 1.321 1.267 3.194 1.339 4.711 2.242 2.06 0.8901-0.8093 0.5471-1.688 0.6429-3.802 0.07292-7.605 0.1401-11.41 0.206 0.03935-3.828-0.1785-7.652-0.5705-11.46-0.08483-3.617-0.0382-7.236-0.1399-10.85-0.01777-0.7289 0.09682-2.013 0.9369-1.233 1.255-0.7177 1.111-2.612 1.269-3.821-0.4138-0.697 0.9678-2.437 0.9757-2.714 0.4441-0.9556 1.037-3.17 1.964-2.973-0.4849 0.829-0.1491 1.082 0.1985 0.1427 0.02222-1.921 2.027-2.762 2.819-4.373 1.148-0.8164 2.441-1.522 3.306-2.702-0.0915-0.7672 0.8864-0.6049 0.3934 0.02526 0.8877 0.1974 2.016-1.561 0.464-0.6257 0.3905-0.6117 1.594-1.105 2.431-1.483 1.29-0.5784 2.581-1.157 3.871-1.735 1.478 0.05495 2.817-0.7401 4.277-0.8203zm-1.68 0.6445c-0.8362 0.07028-1.953 1.286-0.4973 0.5556 0.501 0.1204 0.5564-0.0923 0.4973-0.5556zm-41.54 10.9c-0.412 0.3646-2.076 2.424-0.8625 1.755 0.1729-0.4566 1.797-1.383 0.8625-1.755zm-2.895 2.117c-0.6693 0.5018-1.403 2.202-0.2658 0.7811 0.1171-0.2025 0.648-0.5883 0.2658-0.7811zm0.9023 0.6484c-1.224 0.8443-1.868 2.263-2.977 3.233 0.2882 0.4608 2.226-2.659 1.437-0.6838-1.086 1.325-3.083 1.965-3.666 3.699 0.8676 1.647 1.514-1.008 2.498-1.187-0.03476-1.278 1.42-2.15 2.111-3.357 0.2036 0.6785-1.983 2.639-0.4923 1.523 0.2606-0.591 1.775-2.117 1.196-2.194-1.336 1.363-0.09659-0.4512-0.1058-1.034zm74.93 5.316c-0.06874 0.4467-0.06697 0.451 0 0zm-0.04688 0.9062c-0.8712-0.1422 0.1774 0.6165 0 0zm-6.348 7.875c-0.08737 4.91 0.4796 9.801 1.121 14.66-4.951 0.1719-9.901 0.3507-14.85 0.5156 2.313-0.8951 4.145-2.615 6.033-4.152 3.854-2.598 5.656-7.047 7.698-11.02zm6.133 0.8164c0.1303 0.2361 0.08016-0.1102 0 0zm-88.09 0.1328c-1.089 0.3815 1.084 2.356 0.2424 0.634-0.07976-0.2117-0.1596-0.4235-0.2424-0.634zm-1.211 1.777c-0.7085 0.616 0.564 1.47 0.1077 0.2856zm2.242 0.9922c-0.9698 0.8567 1.703 3.527 0.6374 1.209-0.1941-0.4126-0.4347-0.801-0.6374-1.209zm-0.8594 1.73c-0.6119 0.3398-1.231 0.5815-0.0773 0.622 0.504 0.05997 0.2585-0.4527 0.0773-0.622zm39.73 1.688c0.4896 0.7057 0.9792 1.411 1.469 2.117-0.695-0.359-1.279-1.389-1.469-2.117zm48.2 2.332c-0.4176 0.5797 0.2754 2.096 0.2659 1.218-0.01085-0.5195 0.3779-0.8186-0.2659-1.218zm-75.23 24.48c0.5754 0.4482 1.878 2.276 0.5322 0.9226-0.1666-0.2582-0.7773-0.5605-0.5322-0.9226zm1.812 1.516c1.289 1.387-1.313 0.337 0 0zm80.06 7.824c-0.5724 0.1541-2.044 1.44-0.5551 0.7306 0.1703-0.2132 1.097-0.3557 0.5551-0.7306zm-21.16 8.223c-0.8411 0.1474-1.897 0.7654-2.662 0.3196 0.8865-0.1139 1.776-0.2001 2.662-0.3196zm-2.936 0.3867c-0.5631 0.9638-2.895 0.2922-2.938 0.9305 1.969 0.1324-3.01 0.657-1.322 0.1407-1.459-0.3562-2.933 0.6589-4.377 0.1352 2.867-0.4819 5.76-0.7895 8.637-1.206zm-9.029 1.121c-0.5866 0.5439-3.539 0.2949-1.511 0.1614 0.5037-0.05407 1.007-0.1086 1.511-0.1614z"/></svg>
