<svg version="1.1" viewBox="0 0 128 128" xmlns="http://www.w3.org/2000/svg"><path d="m35.73 0.06836a0.658 0.658 0 0 0-0.5918 0.001953l-10.15 5.16a0.658 0.658 0 0 0-0.3594 0.5859v5.299c0 0.25 0.1412 0.4788 0.3652 0.5898l7.186 3.551-1.412 15.41-5.672 2.816a0.658 0.658 0 0 0-0.3652 0.5781l-0.09375 5.209a0.658 0.658 0 0 0 0.3594 0.5996l4.711 2.383-0.2793 3.057-6.422 16.65c-1.105 1.157-1.787 2.718-1.787 4.439v54.87a6.45 6.45 0 0 0 6.441 6.443h72.67a6.45 6.45 0 0 0 6.441-6.443v-54.87a6.41 6.41 0 0 0-1.604-4.24l-6.572-20.08 4.041-1.955a0.658 0.658 0 0 0 0.3711-0.5938v-5.443a0.656 0.656 0 0 0-0.3672-0.5898l-5.152-2.531-1.291-16.03 6.449-3.238a0.658 0.658 0 0 0 0.3613-0.5879v-5.215a0.657 0.657 0 0 0-0.3574-0.584l-10.24-5.244a0.659 0.659 0 0 0-0.5996-0.001953l-27.51 13.96a0.656 0.656 0 0 1-0.5898 0.001953l-27.99-13.96zm57.41 16.41 1.037 12.87-13.48-6.619 12.44-6.246zm-57.91 0.2812 11.81 5.834-12.93 6.418 1.123-12.25zm28.49 14.59a0.657 0.657 0 0 1 0.5938 0.001954l27.25 13.85c0.183 0.092 0.4 0.09586 0.584 0.00586l3.186-1.541 1.312 16.29h-65.37l1.275-13.92 0.7578-1.967 2.229 1.127a0.659 0.659 0 0 0 0.5938 0l27.59-13.85zm35.69 23.41 1.721 5.258c-0.261-0.033-0.5249-0.05469-0.7949-0.05469h-0.5078l-0.418-5.203zm-71.04 2.115-0.2812 3.088h-0.4277c-0.165-1e-6 -0.3282 0.01144-0.4902 0.02344l1.199-3.111zm-0.709 4.99h72.67a4.539 4.539 0 0 1 4.537 4.539v4.248h-81.75v-4.246a4.539 4.539 0 0 1 4.537-4.541zm0.6289 3.105a1.438 1.438 0 0 0 0 2.875 1.438 1.438 0 1 0 0-2.875zm4.914 0a1.438 1.438 0 0 0 0 2.875 1.438 1.438 0 1 0 0-2.875zm4.762 0a1.438 1.438 0 0 0 0 2.875 1.438 1.438 0 1 0 0-2.875zm-14.84 7.586h81.75v48.72a4.539 4.539 0 0 1-4.537 4.539h-72.67a4.539 4.539 0 0 1-4.537-4.539v-48.72zm4.982 19.1v10.93h1.771v-4.148h2.287c1.001 0 1.78-0.3166 2.365-0.9336 0.572-0.615 0.8594-1.428 0.8594-2.465 0-1.023-0.2861-1.851-0.8711-2.467-0.585-0.617-1.366-0.916-2.354-0.916h-4.059zm45.13 1.336v2.178h-1.543v1.559h1.543v2.986c0 0.967 0.246 1.673 0.75 2.148 0.505 0.476 1.198 0.7227 2.078 0.7227 0.591 0 1.212-0.1722 1.875-0.5332l-0.5488-1.588c-0.432 0.231-0.8363 0.3457-1.197 0.3457-0.707 0-1.053-0.4182-1.053-1.24v-2.842h2.352v-1.559h-2.352v-2.178h-1.904zm-43.36 0.5137h2.287c0.468 0 0.8318 0.1339 1.092 0.4199 0.247 0.286 0.377 0.6463 0.377 1.113 0 0.467-0.13 0.842-0.377 1.127v0.001953c-0.26 0.285-0.6238 0.4199-1.092 0.4199h-2.287v-3.082zm20.03 1.447c-0.952 0-1.744 0.2609-2.379 0.7949v-0.5781h-1.904v10.63h1.904v-3.996c0.65 0.519 1.441 0.7793 2.379 0.7793 0.952 0 1.775-0.361 2.482-1.082 0.707-0.722 1.053-1.631 1.053-2.727s-0.3457-2.006-1.053-2.742c-0.707-0.721-1.544-1.08-2.482-1.08v-0.001953zm9.262 0c-0.952 0-1.744 0.2609-2.379 0.7949v-0.5781h-1.904v10.63h1.904v-3.996c0.65 0.519 1.441 0.7793 2.379 0.7793 0.952 0 1.774-0.361 2.482-1.082 0.706-0.722 1.053-1.631 1.053-2.727s-0.3467-2.006-1.053-2.742c-0.708-0.721-1.544-1.08-2.482-1.08v-0.001953zm8.121 0c-1.052 0-1.934 0.3614-2.641 1.068-0.721 0.721-1.082 1.645-1.082 2.756 0 1.11 0.3614 2.033 1.068 2.74 0.706 0.707 1.587 1.068 2.627 1.068 0.808 0 1.514-0.1875 2.121-0.5625 0.605-0.375 1.066-0.9242 1.369-1.66l-1.703-0.3594c-0.375 0.635-0.9651 0.9512-1.787 0.9512-0.448 0-0.8233-0.1579-1.154-0.4609-0.332-0.303-0.5484-0.7069-0.6484-1.211h5.48v-0.6504c-0.043-1.082-0.4034-1.962-1.109-2.654-0.707-0.678-1.56-1.025-2.541-1.025zm14.67 0c-1.052 4.51e-4 -1.933 0.3618-2.639 1.068-0.722 0.721-1.084 1.645-1.084 2.756 0 1.11 0.3614 2.033 1.068 2.74s1.588 1.068 2.627 1.068c0.808 0 1.515-0.1875 2.121-0.5625 0.605-0.375 1.066-0.9242 1.369-1.66l-1.701-0.3594c-0.375 0.635-0.9671 0.9512-1.789 0.9512a1.65 1.65 0 0 1-1.154-0.4609c-0.332-0.303-0.5484-0.7069-0.6484-1.211h5.48v-0.6504c-0.043-1.082-0.4024-1.962-1.109-2.654-0.7065-0.6775-1.558-1.025-2.539-1.025h-0.001953zm8.555 0c-1.053 0-1.933 0.3614-2.639 1.068-0.722 0.721-1.084 1.645-1.084 2.756 0 1.11 0.3614 2.033 1.068 2.74 0.707 0.707 1.586 1.068 2.625 1.068 0.808 0 1.515-0.1875 2.121-0.5625 0.606-0.375 1.068-0.9242 1.371-1.66l-1.703-0.3594c-0.375 0.635-0.9671 0.9512-1.789 0.9512a1.65 1.65 0 0 1-1.152-0.4609c-0.332-0.303-0.5504-0.7069-0.6504-1.211h5.482v-0.6504c-0.043-1.082-0.4043-1.962-1.111-2.654-0.707-0.678-1.557-1.025-2.539-1.025zm9.578 0.1172c-1.067 1e-6 -1.932 0.4741-2.582 1.412v-1.311h-1.904v7.197h1.904v-2.322c0-2.063 0.8514-3.086 2.568-3.086h0.418l0.1016-1.834c-0.115-0.043-0.2889-0.05664-0.5059-0.05664zm-63.54 0.09961v4.387c0 0.894 0.2609 1.615 0.7949 2.178 0.534 0.562 1.226 0.8516 2.092 0.8516 0.937 0 1.686-0.2882 2.264-0.8652v0.6484h1.904v-7.199h-1.904v3.189c0 1.659-0.5911 2.48-1.789 2.48-0.447 0-0.7927-0.1589-1.053-0.4609-0.273-0.303-0.4023-0.7216-0.4023-1.227v-3.982h-1.906zm13.03 1.443c0.592 0 1.069 0.2018 1.459 0.5918 0.374 0.389 0.5625 0.9233 0.5625 1.572 0 0.649-0.1875 1.169-0.5625 1.559-0.39 0.39-0.867 0.5918-1.459 0.5918-0.533 0-1.009-0.2034-1.428-0.6074-0.418-0.39-0.6191-0.908-0.6191-1.543 0-0.635 0.2011-1.155 0.6191-1.559 0.418-0.404 0.8947-0.6055 1.428-0.6055zm9.262 0c0.592 0 1.067 0.2018 1.457 0.5918 0.375 0.389 0.5625 0.9233 0.5625 1.572 0 0.649-0.1875 1.169-0.5625 1.559-0.389 0.39-0.865 0.5918-1.457 0.5918-0.533 0-1.009-0.2034-1.428-0.6074-0.418-0.39-0.6191-0.908-0.6191-1.543 0-0.635 0.2011-1.155 0.6191-1.559 0.418-0.404 0.8947-0.6055 1.428-0.6055zm8.453 0a1.805 1.805 0 0 1 1.068 0.332c0.303 0.217 0.5188 0.5471 0.6348 0.9941h-3.477a1.595 1.595 0 0 1 0.6777-0.9805 1.9 1.9 0 0 1 1.096-0.3457zm14.67 0a1.805 1.805 0 0 1 1.068 0.332c0.303 0.216 0.5198 0.5481 0.6348 0.9961h-3.477v-0.001953a1.595 1.595 0 0 1 0.6777-0.9805 1.9 1.9 0 0 1 1.096-0.3457zm8.555 0a1.805 1.805 0 0 1 1.068 0.332c0.303 0.217 0.5198 0.5471 0.6348 0.9941h-3.479a1.595 1.595 0 0 1 0.6797-0.9805 1.9 1.9 0 0 1 1.096-0.3457z"/></svg>
