<svg version="1.1" viewBox="0 0 128 128" xmlns="http://www.w3.org/2000/svg"><path d="m24.98 5.602c-10.66 0-19.37 8.714-19.37 19.37v78.05c0 10.66 8.714 19.38 19.37 19.38h53.45l-14.43-35.04-10.47 22.13h-28.55c-3.5 0-6.461-2.961-6.461-6.461v-78.05c0-3.5 2.961-6.461 6.461-6.461h78.05c3.5 0 6.461 2.961 6.461 6.461v78.05c0 3.5-2.961 6.461-6.461 6.461h-16.94l5.316 12.91h11.62c10.66 0 19.38-8.714 19.38-19.38v-78.05c0-10.66-8.714-19.37-19.38-19.37h-78.05zm21.04 20.52v20.76 0.003907l0.003907-0.001953 17.98 10.38 17.98-10.38-0.00586-0.003907c0.001991-3.62e-4 0.003868 3.63e-4 0.00586 0v-20.76l-17.98 10.38-17.98-10.38zm-0.9805 22.46-17.98 10.38 17.98 10.38v20.77l17.98-10.38v-20.76l-17.98-10.38zm37.92 0-17.98 10.38v20.76h0.001954l17.98 10.38v-20.77l17.98-10.38-17.98-10.38z"/></svg>
