<svg version="1.1" viewBox="0 0 128 128" xmlns="http://www.w3.org/2000/svg"><path d="m77.73 15.32c-4.249 0.1125-8.497 0.2877-12.75 0.25-7.065 0.02464-14.13 0.02481-21.2 0.06445-4.947 0.1461-9.674 3.279-11.67 7.816-4.905 9.736-9.809 19.5-14.71 29.22-1.978 3.175-2.938 7.146-1.812 10.8 0.7781 2.717 2.505 4.992 3.889 7.416 4.668 7.733 9.309 15.48 13.99 23.21 2.02 3.217 5.488 5.551 9.314 5.848 2.68 0.1598 5.364-0.1222 8.047-0.1426 3.404-0.07946 6.822-0.2165 10.22-0.1797 11.54 4.311 23.07 8.622 34.61 12.93 0.9858 0.3342 1.241-0.9524 0.6426-1.604l-8.576-17.01c5.536-10.03 11.09-20.06 16.61-30.1 1.754-3.602 3.087-7.805 1.857-11.79-0.6752-2.112-1.927-3.966-2.932-5.928-1.628-2.996-3.239-6.003-4.99-8.93-3.049-5.243-6.063-10.5-9.133-15.73-2.426-3.829-6.879-6.228-11.41-6.143zm-33 3.393c11.96 12.99 23.81 26.08 35.71 39.13 0.1356 0.3306-0.5362 0.645-0.7402 0.9688l-5.562 5.637 3.797 30.58-37.02-36.61 9.152-8.82-5.344-30.88z"/></svg>
