<svg version="1.1" viewBox="0 0 128 128" xmlns="http://www.w3.org/2000/svg"><path d="m63.87 0c-.3191.00025-.6313.08119-.9062.2422-.232.135-1.203 1.529-2.16 3.098-2.4 3.94-2.426 3.941-5.65.5488-2.098-2.208-2.606-2.612-3.281-2.607-.44.002-.9944.152-1.234.332-.24.18-.9159 1.613-1.504 3.184-1.346 3.6-1.41 3.714-2.156 3.859-.46.086-1.343-.4057-3.463-1.928-1.565-1.125-3.099-2.045-3.41-2.045-1.291 0-1.656.7044-2.271 4.398-.78 4.697-.7523 4.683-4.986 2.76-1.71-.776-3.331-1.41-3.604-1.41-.274 0-.7924.2914-1.15.6504-.652.652-.6526.6551-.4746 4.246l.1777 3.596-.6797.3633c-.602.322-1.017.2833-3.684-.3477-3.48-.822-4.216-.7996-4.92.1504l-.5176.6934.6934 2.963c.38 1.63.7435 3.201.8125 3.488.067.287-.04977.7455-.2598 1.02-.348.448-.7165.4895-3.939.4395-5.452-.086-5.761.3828-3.51 5.301.718 1.56 1.305 2.98 1.305 3.15 0 .898-.716 1.224-3.793 1.727-1.722.28-3.218.5098-3.326.5098-.107 0-.4298.2345-.7168.5215-.937.936-.6709 1.816 1.453 4.814 2.646 3.735 2.642 3.751-1.73 5.422-4.971 1.902-5.072 2.369-1.287 5.959 3.525 3.344 3.53 3.296-.4609 5.805-3.024 1.898-3.069 1.945-3.146 2.975-.093 1.253-.07189 1.274 3.537 3.479 3.57 2.18 3.569 2.247.06641 5.561-3.768 3.564-3.651 4.084 1.324 5.961 4.347 1.64 4.352 1.661 1.701 5.395-1.502 2.117-1.98 2.999-1.98 3.652 0 1.223.6365 1.535 4.439 2.174 3.206.54 3.92.8582 3.92 1.742 0 .182-.5876 1.611-1.307 3.176-2.236 4.87-1.98 5.275 3.311 5.275 4.93 0 4.798-.1491 3.736 4.295-.8 3.35-.8129 3.992-.08789 4.715.554.556 1.599.4939 4.869-.2891 2.499-.596 2.939-.6371 3.518-.3281l.6602.3535-.1777 3.594c-.178 3.593-.1774 3.595.4746 4.248.358.36.885.6523 1.166.6523.282 0 1.903-.6303 3.604-1.404 4.22-1.916 4.194-1.932 4.973 2.75.617 3.711.9779 4.4 2.295 4.4.327 0 1.83-.881 3.34-1.959 2.654-1.893 3.342-2.19 4.049-1.74.182.115.8903 1.67 1.572 3.455 1.003 2.625 1.369 3.31 1.928 3.576 1.062.51 1.721.1008 4.219-2.619 3.016-3.286 3.14-3.269 5.602.7207 2.72 4.406 3.425 4.395 6.213-.08985 2.402-3.864 2.374-3.863 5.621-.4707 2.157 2.25 2.615 2.611 3.342 2.611.464 0 1.019-.1757 1.23-.3887.214-.213.9204-1.786 1.568-3.496.649-1.71 1.32-3.201 1.494-3.311.687-.436 1.399-.13 4.049 1.752 1.56 1.108 3.028 1.961 3.377 1.961 1.296 0 1.763-.9202 2.301-4.535.46-3.082.5542-3.379 1.16-3.686.596-.302.954-.1997 3.75 1.07 1.701.77 3.324 1.402 3.605 1.402.282 0 .8156-.3019 1.184-.6719l.6719-.6699-.1836-3.449c-.177-3.29-.1607-3.466.3633-3.941.54-.488.5962-.4869 3.615.2031 3.656.835 4.338.8569 5.025.1699.671-.67.6641-.8175-.2539-4.689-1.03-4.346-1.169-4.189 3.779-4.189 3.374 0 3.75-.04944 4.18-.5234.718-.793.5465-1.702-.8965-4.779-.729-1.55-1.319-2.96-1.314-3.135.024-.914.7424-1.228 4.064-1.768 2.033-.329 3.554-.709 3.83-.959.923-.833.5836-1.918-1.523-4.873-2.642-3.703-2.629-3.74 1.6-5.299 5.064-1.866 5.208-2.488 1.418-6.09-3.51-3.335-3.511-3.316.334-5.676 4.648-2.853 4.655-3.497.08203-6.336-3.933-2.44-3.931-2.405-.4062-5.752 3.78-3.593 3.678-4.063-1.295-5.965-4.388-1.679-4.401-1.721-1.734-5.381 1.588-2.18 1.982-2.903 1.982-3.65 0-1.306-.5856-1.597-4.436-2.219-3.216-.52-3.926-.835-3.926-1.75 0-.174.5896-1.574 1.309-3.113 1.406-3.013 1.603-4.219.8066-4.939-.428-.387-.9994-.4436-4.066-.3926-3.208.054-3.618.007547-4.062-.4395-.486-.488-.4807-.5566.2773-3.725.931-3.88.9349-3.974.1699-4.693-.777-.73-1.262-.7199-4.826.1191-2.597.612-3.027.6539-3.617.3379l-.6699-.3594.1856-3.582.1856-3.58-.6699-.6699c-.369-.37-.8901-.6699-1.162-.6699-.27 0-1.885.6389-3.584 1.42-2.838 1.306-3.142 1.393-3.756 1.072-.612-.32-.7153-.6361-1.238-3.828-.603-3.693-.9761-4.412-2.287-4.412-.311 0-1.853.9247-3.426 2.055-2.584 1.856-2.93 2.032-3.574 1.807-.533-.186-.8427-.5906-1.221-1.6-.28-.742-.8183-2.171-1.195-3.176-.762-2.028-1.187-2.482-2.328-2.482-.637 0-1.212.4575-3.279 2.604-3.25 3.375-3.261 3.374-5.65-.5449-.955-1.566-1.952-2.963-2.217-3.105-.2985-.16-.6242-.2405-.9434-.2402zm-.08594 11.33c.74.004876 1.482.238 2.139.7051h.001953c2.828 2.015 1.323 6.75-2.146 6.75-3.368 0-5.064-4.056-2.66-6.359.7639-.7312 1.714-1.102 2.666-1.096zm-8.762 6.189 3.34 3.387c1.839 1.863 3.641 3.5 4.004 3.637 1.855.705 2.616.2812 6.852-3.801l3.182-3.068 1.348.1797c4.225.56 12.63 4.25 17.46 7.666 4.436 3.14 10.33 9.534 12.85 13.93l.5352.9414-2.379 5.365c-1.31 2.95-2.383 5.673-2.383 6.053 0 .878.5769 2.266 1.131 2.725.234.195 2.457 1.266 4.939 2.379l4.51 2.025.1777 1.148c.23 1.495.2607 5.166.05274 6.209l-.1641.8164h-2.574c-2.987 0-2.756-.2665-2.918 3.396-.118 2.656-.7607 4.123-2.221 5.074-2.377 1.551-6.305 1.27-7.971-.5703-.255-.284-.7505-1.705-1.104-3.16-1.03-4.254-2.413-6.64-5.193-8.965-.878-.733-1.596-1.417-1.596-1.521 0-.102.9645-.9147 2.145-1.803 4.298-3.24 6.771-7.013 7.041-10.75.519-7.126-5.158-13.77-13.6-15.92-2.002-.51-2.858-.5254-27.62-.5254-14.06 0-25.56-.09112-25.56-.2031 0-.263 3.127-3.295 4.967-4.816 5.054-4.178 11.62-7.466 18.42-9.221l2.35-.6094zm-36.71 28.23c.6571-.02136 1.34.1536 1.994.582 1.539 1.008 2.17 3.541 1.26 5.062-1.405 2.356-4.966 2.455-6.373.1777-1.63-2.637.5414-5.738 3.119-5.822zm90.94.2227c.6136.00925 1.21.1723 1.729.4883v.001953c4.026 2.454.9057 8.493-3.404 6.586-2.877-1.273-2.971-5.207-.1562-6.641.587-.3 1.218-.4448 1.832-.4355zm-83.61.5h6.521v15.02h.001953v15.02h-13.28l-.5254-2.285c-1.036-4.5-1.472-9.156-1.211-12.97l.1816-2.678 4.564-2.049c2.864-1.283 4.706-2.262 4.943-2.625 1.038-1.584.9404-2.714-.5176-5.932l-.6797-1.502zm27.68.2578h7.781c6.078 0 8.113.08753 9.289.3945 2.843.74 4.344 2.244 4.348 4.354.002 1.55-.7649 2.521-2.67 3.381-1.348.61-1.562.624-10.06.707l-8.686.08398v-8.92zm0 21.68h6.598c3.626.002 7.018.1197 7.537.2637 1.41.392 3.078 1.617 3.932 2.889.898 1.337 1.422 3.076 2.666 8.836 1.05 4.87 1.728 6.459 3.621 8.531 2.345 2.566 1.8 2.467 13.51 2.467 5.61 0 10.2.08922 10.2.1992 0 .197-3.862 4.764-4.029 4.764-.048 0-2.066-.4205-4.484-.9375-6.829-1.458-7.076-1.288-8.643 6.031l-1.008 4.703-.9102.4473c-1.518.75-6.453 2.292-9.01 2.82-4.228.87-8.828 1.161-12.87.8203-6.893-.585-16.02-3.26-16.38-4.801-.075-.327-.5346-2.442-1.018-4.703-.485-2.26-1.075-4.404-1.311-4.764-1.13-1.724-2.318-1.83-7.547-.6738-1.98.44-3.708.7949-3.84.7949-.248 0-3.924-4.249-3.924-4.535 0-.09 8.728-.1925 19.4-.2285l19.39-.06641.07031-6.891c.05-4.865-.01652-6.997-.2285-7.25-.234-.284-1.486-.3574-6.012-.3574h-5.715v-8.359zm-17.75 31.1c.7295.004875 1.463.172 2 .5 3.084 1.88 1.605 6.805-2.043 6.801-3.74 0-5.126-4.88-1.939-6.826.5275-.3215 1.253-.4795 1.982-.4746zm56.43.06055c.7214-.007829 1.442.1972 2.055.6465 1.512 1.108 2.014 3.412 1.078 4.949-2.46 4.034-8.612.828-6.557-3.418.6628-1.368 2.047-2.163 3.424-2.178z"/></svg>
