<svg fill="#173354" version="1.1" viewBox="0 0 128 128" xmlns="http://www.w3.org/2000/svg"><path d="m102.4 32.75c2.292 1.281 4.574 2.596 6.693 4.154-0.09349 0.8556 1.181 0.3597 1.506 1.137 0.9152 0.8701 2.363 1.502 2.479 2.736 1.506 0.2152 2.307 1.94 3.365 2.996-0.06707 0.5216-0.1621 1.721 0.9297 1.633 1.077 0.5513 1.618 2.268 2.291 3.398 0.566 0.7532 0.3684 1.156-0.1895 1.766-0.5099 1.626 1.878 1.063 1.709 2.443 0.4019 1.615 0.6102 3.279 0.5996 4.943-1.237-0.01608-2.337 1.447-1.57 2.555 0.4646 0.7638 1.733 0.6729 1.07 1.787-0.3964 1.76-1.023 3.466-1.826 5.08-1.53-0.5404-3.609 0.6424-3.369 2.395 0.02185 1.012 1.582 1.46 0.3926 2.281-1.295 1.638-2.76 3.136-4.311 4.531-1.14-0.8166-3.153-0.1316-3.174 1.383 0.8957 1.503-1.417 1.945-2.316 2.848-1.25 0.7133-2.574 1.846-3.861 2.162-1.074-0.8702-3.143-0.07096-2.898 1.432-0.421 0.8039-2.001 1.057-2.891 1.592-1.39 0.598-2.799 1.151-4.221 1.67-0.7946-1.093-2.913-0.6365-2.936 0.7949-1.044 0.8187-3.023 1.006-4.445 1.516-1.434 0.1662-3.013 1.296-4.299 0.4531-1.304-0.2915-1.519 1.404-2.854 1.135-2.404 0.4417-4.826 0.7959-7.256 1.062-0.9854-1.155-1.716 0.5101-2.773 0.2676-2.635 0.2201-5.278 0.3409-7.922 0.3691-0.8061-1.198-1.7 0.4663-2.801-0.003906-2.545-0.03698-5.088-0.1593-7.623-0.3789-0.595-1.095-1.617 0.3466-2.559-0.2539-2.327-0.2599-4.644-0.6005-6.947-1.023-0.3815-0.9572-1.345 0.1524-2.066-0.4023-2.279-0.445-4.529-1.029-6.758-1.678-0.2523-0.7836-1.326-0.004301-1.959-0.5996-3.89-1.225-7.671-2.785-11.31-4.627 8.307 4.914 17.68 7.796 27.15 9.443 12.24 2.069 24.82 2.027 37.05-0.1211 10.12-1.834 20.14-5.108 28.78-10.79 5.733-3.81 10.96-8.897 13.44-15.45 2.024-5.322 1.638-11.45-0.9316-16.52-2.819-5.664-7.645-10.06-12.86-13.52-2.708-1.77-5.58-3.281-8.533-4.598zm-84.51 3.238c-4.745-0.03591-9.787 1.297-13.16 4.807-2.113 2.155-2.869 5.342-2.4 8.275 0.3181 2.815 2.018 5.404 4.498 6.783 3.798 2.287 8.326 2.619 12.52 3.801 1.417 0.4868 3.088 1.494 3.025 3.203 0.1013 2.065-2.052 3.249-3.861 3.52-4.946 0.9-10.09-0.6615-14.21-3.404-0.7378-0.4123-1.287-1.288-2.219-1.08-0.2319 0.1947-0.03337 0.8193-0.09961 1.18v7.359c4.247 1.775 8.819 2.836 13.44 2.773 4.708 0.04595 9.806-0.8903 13.37-4.213 2.386-2.125 3.519-5.41 3.234-8.562-0.1003-2.559-1.315-5.079-3.436-6.564-3.572-2.599-8.048-3.172-12.24-4.152-1.516-0.4331-3.408-0.7518-4.201-2.287-1.171-2.438 1.742-4.707 4.004-4.729 4.823-0.7288 9.786 0.9416 13.58 3.906 0.3733-0.0442 1.04 0.2059 0.8359-0.416v-7.783c-3.997-1.654-8.36-2.37-12.67-2.416zm25.89 0.6562c-2.077-0.002174-4.156 0.02556-6.232 0.005859h-3.785v35.91c4.733-0.02226 9.468 0.05095 14.2-0.05078 4.251-0.179 8.692-0.7645 12.22-3.355 4.39-3.109 7.146-8.355 7.256-13.73 0.1713-4.328-0.9023-8.818-3.729-12.21-3.253-4.248-8.525-6.138-13.7-6.396-2.073-0.1427-4.151-0.1756-6.229-0.1777zm26.14 0.01758v35.91h25.18v-6.842h-15.71v-29.06h-9.475zm-26.69 6.689c1.744 0.02621 3.487 0.06756 5.23 0.09961 4.015 0.1119 7.706 3.033 8.709 6.904 0.8177 3.069 0.7774 6.426-0.3145 9.424-1.308 3.581-5.006 6.109-8.826 5.959-1.6 0.03063-3.199 0.0712-4.799 0.0957v-22.48zm-5.23 31.57c-0.04105-0.01285-0.0888-0.01086-0.1445 0.01172h-0.6914c-0.1043 0.5399 0.04598 0.8251 0.625 0.6816 0.4264 0.226 0.4983-0.6034 0.2109-0.6934zm18.29 0c-0.04112-0.01286-0.08861-0.0108-0.1445 0.01172h-0.6934c-0.1051 0.54 0.04722 0.8226 0.625 0.6797 0.4269 0.2272 0.5007-0.6014 0.2129-0.6914zm21.28 0c-0.04107-0.01277-0.08874-0.01091-0.1445 0.01172h-0.6914c-0.1051 0.54 0.04722 0.8226 0.625 0.6797 0.4259 0.2261 0.4984-0.602 0.2109-0.6914zm-2.102 0.009766c-0.09831 0.3124 0.2124 1.262-0.1855 1.107-0.7637-0.3904-1.746 0.2608-1.736 1.098 0.04856-1.597-2.559-1.594-2.854-0.1836-0.3757 1.052 0.5883 2.089 1.66 1.934 0.4628-0.05453 1.402 0.004544 1.158-0.7207-0.07347-0.6371-1.489 0.7043-1.869-0.2637-0.2828-0.5944 0.7285-0.2198 1.092-0.3242 1.223-0.4306 0.6149 1.389 1.857 1.309 0.6714-0.1184 0.7861-0.4899 1.016-0.07617 0.4266 0.005492 0.9792 0.1366 0.7773-0.4863v-3.393h-0.916zm-29.13 0.001953v3.881c0.3376-0.08352 1.089 0.2469 0.916-0.3477v-3.533h-0.916zm-11.19 0.0918c-1.017 0.1717-1.724 1.62-0.5352 2.146 0.3297 0.1485 2.041 0.3229 1.207 0.959-0.7612 0.5697-2.172-1.189-1.865 0.2754 0.4157 0.6545 1.814 0.5797 2.531 0.2148 1.257-0.7259 0.2448-2.27-0.9531-2.145-1.257-0.1448 0.1254-1.315 0.7598-0.6426 0.3488 0.4933 0.7019 0.4164 0.6133 0.01953 0.2384-0.8848-0.6693-0.7044-1.307-0.8164-0.1534-0.03398-0.3059-0.03625-0.4512-0.01172zm18.21 0.01758c-0.1824-0.007897-0.3707 0.01091-0.5586 0.05859h-1.002v3.713c1.212-0.03801 2.81 0.2795 3.359-1.164 0.5229-1.232-0.5224-2.552-1.799-2.607zm28.89 0.05469v3.713h2.602c-0.1387-1.044 0.404 0.5357 1.104 0.04492 0.5667-0.3288 0.5136-0.3391 0.7461-0.04492 0.4261 0.006327 0.9755 0.1355 0.7734-0.4863-0.05756-0.6708 0.152-1.411-0.1973-2.016-0.6047-0.4981-2.637-0.8043-2.311 0.4355 0.3006-0.5407 2.292 0.06752 1.256 0.2578-0.8921-0.1714-1.441 0.7152-1.67 1.104h-1.322v-3.008h-0.9805zm-17.48 0.08984c-0.1017-0.005247-0.22 0.004691-0.3477 0.02539h-0.2207c0.02596 0.4319 0.07483 0.8876-0.3516 0.8672-0.7845-0.3565-2.218-0.1033-2.389 0.9727-0.01635-1.396-2.223-1.5-2.711-0.3652 0.345-1.073-0.8294-0.4683-1.057-0.4141 0.136-0.4521-0.7655-0.2619-0.916-0.1914v2.73c0.3376-0.08352 1.089 0.2469 0.916-0.3477v-1.529c1.175-0.5821 0.8093 0.3645 0.9824 1.115 0.4685 1.017 1.884 0.9722 2.768 0.6035 0.03266-0.4158 0.07225-0.9844-0.4414-0.5293-0.7213 0.7236-2.25-0.769-0.8906-0.5469h1.346c-0.2789 1.266 2.564 1.944 2.574 0.6738 0.09574-0.8473-1.396 0.7015-1.615-0.4609-0.4806-1.261 1.076-1.378 1.617-0.9551 0.1328-0.6282 0.226 0.3673 0.168 0.6191-0.2487 1.026 0.6825 1.757 1.686 1.352 0.3584-0.3815 0.005182-0.8911-0.5977-0.6035-0.3251-0.4355-0.1093-1.059-0.1719-1.582 0.3827-0.04981 1.077 0.2122 0.8809-0.416 0.08343-0.5114-0.9848 0.1276-0.8809-0.4043 0.1213-0.442-0.04264-0.5975-0.3477-0.6133zm-12 0.6055c0.809-0.1297 1.678 0.4724 1.49 1.352-0.02664 0.7441-0.8332 1.054-1.49 0.9727v-2.324zm26.11 0.06836c-0.5911-0.07176-1.027 0.4306-0.7207 0.8828 0.2336-0.56 2.141 0.03711 1.25 0.252-1.319-0.3286-2.373 1.632-0.6621 1.891 0.7343-0.1292 0.8211-0.4718 1.145-0.07617 0.4847 0.06492 0.8786 0.04056 0.7031-0.5547-0.0779-0.6961 0.2282-1.554-0.3477-2.084-0.3241-0.2147-0.7294-0.2367-1.105-0.2422-0.089-0.03547-0.1773-0.05811-0.2617-0.06836zm-9.156 0.02734c-0.5658-0.07829-1.096 0.9152-1.408 0.166l-0.4727-0.123c-0.7419 0.2397-0.704 0.3694-1.082 0.07617-0.4848-0.06368-0.8829-0.04228-0.707 0.5547v2.246c0.3376-0.08352 1.089 0.2469 0.916-0.3477v-1.637c0.7493-0.5553 0.9407 0.4297 0.8398 1.004 0.1056 0.3142-0.2586 1.098 0.2773 0.9824 0.5422 0.1199 0.7741-0.07106 0.6426-0.625v-1.359c0.892-0.6132 0.885 0.5698 0.8398 1.143 0.04474 0.3744-0.2065 1.046 0.416 0.8418 0.6205 0.1968 0.5213-0.3259 0.5039-0.7656-0.07371-0.6996 0.2603-1.637-0.5215-2.049-0.08172-0.06313-0.1633-0.09624-0.2441-0.1074zm22.23 0.0332c-1.061-0.1187-1.848 1.01-1.506 1.984 0.381 1.147 1.873 1.141 2.811 0.7461 0.2022-0.9733-0.3301-0.6344-1.057-0.4004-1.092-0.004324-1.045-0.967-0.06641-0.6738 0.3576-0.08145 1.048 0.1702 1.178-0.1387 0.1094-0.8501-0.4674-1.59-1.359-1.518zm-42.97 0.003907c-1.127-0.1363-1.909 1.139-1.457 2.125 0.4795 1.014 1.861 0.9731 2.764 0.6074 0.1235-0.7039-0.09932-0.88-0.7441-0.4355-0.9914 0.3694-1.678-0.9651-0.4512-0.6445 0.3935-0.04559 0.9701 0.0908 1.248-0.07031 0.1116-0.8531-0.4287-1.668-1.359-1.582zm-6.949 0.009765c-0.5821-0.0749-0.931 0.8814-1.285 0.123-0.7642-0.3655-1.212 0.4484-1.557-0.04492-0.4848-0.06368-0.8829-0.04228-0.707 0.5547v2.246c0.3376-0.08352 1.089 0.2469 0.916-0.3477v-1.637c0.8853-0.6115 0.8816 0.5706 0.8359 1.139 0.04518 0.3753-0.207 1.048 0.416 0.8457 0.6208 0.1971 0.5273-0.3205 0.5078-0.7637 0.09727-0.4354-0.2244-1.113 0.2207-1.348 0.8405-0.2224 0.5664 0.8398 0.6152 1.336-0.005874 0.4264-0.1361 0.9773 0.4863 0.7754 0.6271 0.204 0.4015-0.445 0.4355-0.834-0.04891-0.7534 0.2671-2.029-0.8848-2.045zm3.057 0.001954c-0.6527 0.09933-0.7851 0.4641-1.035 0.07617-0.4266-0.005492-0.9792-0.1366-0.7773 0.4863v3.34c0.3376-0.08352 1.09 0.2469 0.916-0.3477 0.02869-0.4389-0.1909-1.156 0.5234-0.6367 1.701 0.321 2.022-2.84 0.373-2.918zm44.82 0.05469c-0.2131 0.00181-0.3823 0.06522-0.3926 0.3477l-0.4707 1.426-0.6191-1.756h-0.9609l1.076 2.732c-0.0535 0.3323-0.5638 0.9721-0.3047 1.094 0.3918-0.04221 0.9733 0.1923 0.9961-0.3887l1.332-3.438c-0.1855 0.04004-0.4431-0.01939-0.6562-0.01758zm3.754 0.007813c-0.1899 0.0206-0.3081 0.1122-0.207 0.4238v2.385c0.3376-0.08352 1.089 0.2469 0.916-0.3477v-1.525c0.3834-0.3075 1.263 0.2118 1.057-0.5137-0.04045-0.1786 0.1273-0.509-0.1973-0.4219-0.5609 0.05018-0.8909 0.6411-0.9297 0.007812-0.1878 0.0227-0.4487-0.02841-0.6387-0.007812zm-16.91 0.009765v2.801c0.3376-0.08352 1.089 0.2469 0.916-0.3477v-2.453h-0.916zm-39.57 0.003906v2.801c0.3376-0.08352 1.09 0.2469 0.916-0.3477v-2.453h-0.916zm18.29 0v2.801c0.3376-0.08352 1.089 0.2469 0.916-0.3477v-2.453h-0.916zm16.65 0.4688c1.097 0.4032 0.1112 0.7254-0.5195 0.5703-0.2385-0.1461 0.2568-0.6696 0.5195-0.5703zm19.75 0c1.098 0.4023 0.1113 0.7258-0.5195 0.5703-0.2366-0.1465 0.2561-0.6685 0.5195-0.5703zm-42.97 0.003907c1.098 0.4031 0.1095 0.7224-0.5195 0.5684-0.2371-0.1445 0.2556-0.672 0.5195-0.5684zm11.15 0c1.1 0.4023 0.1147 0.7197-0.5156 0.5664-0.3787-0.01935 0.3276-0.7284 0.5156-0.5664zm15.03 0.1035c0.6565-0.02937 0.2592 0.8261 0.3672 1.252-0.7622 1.4-1.71-1.255-0.3672-1.252zm-30.42 0.02344c1.464 0.1719-0.197 2.598-0.4844 1.211 0.1001-0.442-0.3099-1.302 0.4844-1.211zm35 0.8848c0.4452 0.9948-1.565 0.8931-0.6602 0.1035 0.2128-0.07801 0.4389-0.07686 0.6602-0.1035zm6.883 0c0.4445 0.9938-1.559 0.8949-0.6602 0.1035 0.213-0.07694 0.4389-0.07685 0.6602-0.1035z"/></svg>
