<svg version="1.1" viewBox="0 0 128 128" xmlns="http://www.w3.org/2000/svg"><path d="m64.06 2.48-53.28 30.76v61.52l53.4 30.76 53-30.64v-61.74l0.04101-0.02344zm0 17.68 37.69 21.51 0.01172 0.05273h0.08007v44.28l-37.66 22.32-37.78-21.92v-44.07l-0.003907-0.01172 0.003907 0.001953zm-0.7715 2.779-14.81 8.76 15.05 8.762 14.8-8.641zm-18.43 10.86-14.78 8.75h-0.01562v17.81l15.06 8.23v-17.26l-0.003907-0.01367 14.79-8.637zm38.14 0.4102-14.78 8.789 15.05 8.76v17.24l14.81-8.789v-17.11l-0.07031-0.01562zm-18.4 10.85-14.8 8.76v17.81l15.04 8.219v-0.009765l0.009765 0.009765h0.009766l14.8-8.76v-17.14l-0.01953-0.003907 0.009766-0.005859zm-34.54 20.84v18.1l15.06 8.189v-17.53l-0.1191-0.07031-14.53-8.449zm68.02 0.4395-0.4395 0.2598-14.27 8.35-0.09961 0.05078v17.6l14.81-8.76zm-48.28 10.83v18.06l15.04 8.23v-0.00977l0.009765 0.00977h0.009766l14.8-8.762v-17.45l-0.4395 0.25-14.27 8.32-0.2285 0.08008v-0.05078l-14.51-8.449z"/></svg>
