<svg version="1.1" viewBox="0 0 128 128" xmlns="http://www.w3.org/2000/svg"><path d="m51.4 7.758c-12.08 0.05045-24.2 0.6011-36.12 2.685-3.967 0.7878-8.049 1.548-11.63 3.517-1.067 0.5852-2.104 1.617-1.902 2.905 0.01079 8.979-0.0216 17.96 0.01621 26.94 0.4481 1.65 2.247 2.347 3.653 3.009 5.429 2.119 11.25 2.933 17 3.703 14.41 1.707 28.97 1.932 43.46 1.232 8.956-0.5229 17.96-1.279 26.7-3.4 2.671-0.7547 5.535-1.428 7.704-3.259 1.109-0.8861 0.6966-2.345 0.7754-3.563v-25.24c-0.1648-1.51-1.8-2.305-3.035-2.927-4.77-2.063-9.956-2.87-15.06-3.654-10.45-1.449-21.01-1.928-31.55-1.95zm-49.65 42.8c0.01078 7.997-0.02159 16 0.01621 23.99 0.4476 1.651 2.247 2.348 3.653 3.011 5.429 2.119 11.25 2.932 17 3.703 14.16 1.676 28.47 1.927 42.71 1.257 1.527-0.3636 3.87 0.3827 4.837-0.7857 3.705-9.035 12.17-15.92 21.8-17.63 3.058-0.5682 6.206-0.6485 9.289-0.2336v-13.31c-0.1815 1.633-1.928 2.388-3.225 3.038-5.01 2.093-10.43 2.901-15.77 3.681-14.07 1.82-28.3 2.11-42.46 1.573-9.555-0.4546-19.16-1.183-28.5-3.314-2.877-0.7499-5.905-1.448-8.325-3.261-0.5115-0.4302-1.008-1.012-1.009-1.718zm95.42 16.69c-8.37-0.07691-16.59 4.27-21.29 11.19-5.047 7.2-5.972 17.03-2.374 25.05 3.359 7.768 10.76 13.61 19.11 15.04 7.869 1.449 16.34-1.012 22.16-6.519 6.062-5.569 9.168-14.15 8.013-22.31-1.069-8.708-6.953-16.6-14.97-20.16-3.332-1.509-6.989-2.303-10.65-2.296zm-9.102 10.91c8.009 4.624 16.02 9.247 24.03 13.87-8.009 4.624-16.02 9.247-24.03 13.87v-27.74zm-86.32 3.152c0.0108 9.17-0.0216 18.34 0.01621 27.51 0.4478 1.651 2.247 2.348 3.653 3.01 5.429 2.119 11.25 2.932 17 3.703 13.78 1.632 27.7 1.913 41.56 1.31 4.781-0.2264 9.556-0.5844 14.31-1.121-6.838-5.635-10.87-14.48-10.59-23.34-0.29-1.066 1.061-3.535-0.7978-2.976-14.5 0.7842-29.07 0.5766-43.51-1.051-5.909-0.7515-11.88-1.569-17.5-3.631-1.522-0.6687-3.374-1.33-4.076-2.973l-0.04838-0.2183z"/></svg>
