<svg version="1.1" viewBox="0 0 128 128" xmlns="http://www.w3.org/2000/svg"><path d="m63.99 29.2c-0.7866 0-1.569 0.3627-2.049 1.09l-20.39 30.38-38.95-20.59c-0.03556-0.03555-0.107-0.03516-0.1426-0.03516-1.422-0.6755-2.879 0.7457-2.346 2.168l19.85 50.62 0.003906 0.01172c0.02134 0.04994 0.03921 0.09854 0.06055 0.1484 0.8142 1.888 2.591 3.055 4.525 3.514 0.1635 0.03587 0.2802 0.06817 0.4766 0.1074 0.1955 0.04351 0.4704 0.1012 0.7051 0.1191 0.03912 0.0033 0.07416 0.004613 0.1133 0.007813h0.0293c0.02841 0.0044 0.05552 0.004613 0.08398 0.007813h0.03906c0.02491 0.003299 0.05322 0.001953 0.07812 0.001953h0.04688c0.02846 0.0044 0.05748 0.005859 0.08594 0.005859 25.14 2.74 50.49 2.74 75.63 0 0.3021 0 0.5967-0.01484 0.8809-0.04297 0.0926-0.0109 0.1804-0.02262 0.2695-0.0332 0.0107-0.0044 0.02446-0.002659 0.03516-0.005859 0.0606-0.0076 0.121-0.01861 0.1816-0.0293 0.0887-0.0109 0.1788-0.02888 0.2676-0.04688 0.1779-0.03925 0.2585-0.06717 0.5-0.1504 0.2411-0.08276 0.6421-0.2269 0.8926-0.3477 0.2509-0.1207 0.4229-0.2377 0.6328-0.3691 0.2594-0.1638 0.5074-0.3299 0.7578-0.5176 0.1079-0.08276 0.1817-0.1363 0.2598-0.2109 0.2671-0.2615 0.4809-0.5159 0.707-0.7852 0.32-0.3947 0.6196-0.8179 0.8828-1.291l19.8-50.71v-0.07031c0.4979-1.493-1.031-2.845-2.457-2.062h-0.03515l-38.96 20.59-20.38-30.38c-0.4979-0.7271-1.288-1.09-2.074-1.09z" /></svg>
