<svg version="1.1" viewBox="0 0 128 128" xmlns="http://www.w3.org/2000/svg"><path d="m16.22 15.76a1.129 1.129 0 0 0-1.076 1.398l24.39 98.74a1.129 1.129 0 0 0 1.879 0.5449l73.39-70.59a1.129 1.129 0 0 0-0.4707-1.9l-24.86-7.156a1.129 1.129 0 0 0-0.02344-0.007812 1.129 1.129 0 0 0-0.001953 0l-48.44-13.94a1.129 1.129 0 0 0-0.1133-0.04102 1.129 1.129 0 0 0-0.01367 0.005859l-24.34-7.008a1.129 1.129 0 0 0-0.332-0.04492zm1.584 2.754 20.85 6.002-15.64 15.07-5.207-21.08zm24.65 7.098 20.47 5.893-15.37 14.79-5.102-20.69zm-2.203 0.4941v0.001953l5.113 20.74-20.52-5.891 15.4-14.85zm26.43 6.48 20.53 5.91-15.41 14.85-5.119-20.76zm-2.191 0.5527 5.088 20.62-20.43-5.861 15.34-14.76zm26.52 6.451 20.82 5.994-15.63 15.04-5.186-21.03zm-2.203 0.502 5.115 20.74-20.52-5.891 15.4-14.85zm-64.95 2.926 20.88 5.996-15.67 15.09-5.209-21.08zm24.64 7.045 20.52 5.889-15.41 14.85-5.117-20.74zm-2.184 0.5703 5.213 21.12-20.89-6.021 15.68-15.1zm26.41 6.459 20.9 6-15.7 15.1-5.205-21.1zm-2.191 0.541 5.205 21.1-20.86-6.012 15.65-15.08zm-40.53 10.26 20.51 5.91-15.38 14.83-5.125-20.74zm24.64 7.104 20.47 5.898-15.36 14.78-5.104-20.68zm-2.285 0.1621 5.119 20.74-20.52-5.889 15.4-14.85zm-16.38 16.91 21.19 6.082-15.91 15.3-5.283-21.38z" /></svg>
