<svg version="1.1" viewBox="0 0 128 128" xmlns="http://www.w3.org/2000/svg"><path d="m67.52 18.63c-2.014 3.398-2.906 11.28-2.71 16.6s0.8811 9.966 1.985 14.23c-16.51 4.091-34.49 14.9-44.54 25.36-4.706-6.352-6.572-11.56-7.127-15.51-0.7-4.989 0.4894-9.564 3.443-13.23 4.623-5.743 11.19-6.148 17.95-5.012-0.131 1.067 0.0085 2.087 0.4355 2.717 1.786 2.639 11.39 3.565 17.12 1.008-3.7-5.185-10.72-8.048-14.01-7.906-0.4696 0.02031-0.8635 0.103-1.16 0.248-0.786 0.384-1.379 1.088-1.785 1.91-2.335-0.418-4.654-0.7278-6.348-0.7148-5.957 0.044-10.51 2.125-13.92 6.363-3.347 4.157-4.7 9.32-3.912 14.93 0.746 5.314 3.376 10.97 7.785 16.83-0.732 0.786-1.439 1.562-2.121 2.324-10.75 12.02-18.6 24.92-18.6 27.06v1.107h14.18l-0.248-1.314c-0.8-4.232 0.7973-9.519 4.072-13.47 2.057-2.481 5.464-5.315 10.81-6.621 4.754 4.64 10.81 9.568 17.55 14.32h10.54v-1.107c0-1.249-0.6201-2.342-1.744-3.078-1.665-1.088-4.234-1.239-6.594-0.4336-2.25-2.506-3.513-5.852-3.785-10.01 22.86 2.024 44.74 11.26 69.41 24.15h13.58l0.1777-0.8887c0.254-1.267-0.4368-2.965-2.354-5.113s-6.68-3.435-10.66-3.34c-2.743-3.265-17.83-19.16-18.71-20.09 5.356-3.759 10.02-8.607 13.69-14.32h8.945v-3.266h-7.014c0.0969-0.1784 0.198-0.3533 0.293-0.5332h6.721v-3.264h-5.133c3.125-7.061 4.844-15.11 4.762-20.74-0.0816-5.631-0.8594-16.17-2.287-19.08-3.872 1.471-10.92 6.239-12.51 11.11-7.642-1.14-16.26-1.005-23.8 0.3008-1.26-5.245-7.589-9.258-12.36-11.52zm28 12.05-2.676 9.232-4.148-9.098zm-11.42 6.902c1.325 0 2.379 0.6088 3.047 1.758 1.186 2.037 1.046 5.561 0.2422 9.146h11.49c1.527-4.485 4.715-6.6 10.04-6.6v1.434c-5.772 0-7.391 2.448-8.545 5.166h6.27l-0.0137 1.428-6.222 0.0078h-0.5772c-0.7093 2.436-0.1693 4.576 1.531 7.084l-8e-3 2e-3c1e-3 0.0027 2e-3 0.0055 4e-3 0.0078-0.383 0.245-8.098 5.258-8.098 5.258l5.16 3.191-0.7656 1.215-5.564-3.633-5.156 3.398-0.7891-1.197 4.611-3.039-8.193-5.158 0.3398-0.5977c1.049-1.846 1.981-4.176 2.645-6.531h-6.184v-1.436h6.549c0.807-3.453 0.9661-6.753-0.0059-8.426-0.416-0.71-0.9906-1.043-1.809-1.043-3.741 0-5.286 3.95-5.354 4.125l-1.344-0.5039c0.077-0.207 1.95-5.057 6.697-5.057zm14.27 12.34h-11.34c-0.602 2.221-1.426 4.39-2.314 6.17h14.6c-1.255-2.1-1.458-4.546-0.9492-6.17zm-30.69-5.863 6.559 3.48-5.891 0.4004zm48.44 2.543-0.9394 2.945-4.414-0.6699zm-46.83 4.549 4.016 1.605-3.346 0.9355zm44.69 2.008-0.8027 2.408-3.346-1.205zm-57.53 1.738 3.611 10.7-10.97-7.357zm29.57 2.629 6.061 3.816 5.783-3.812zm-20.48 1.848h12.91v1.594h-12.91zm39.43 0h12.91v1.594h-12.91zm-59.08 0.207 3.877 6.688-8.162-4.145zm19.65 3.619h12.91v1.594h-12.91zm39.43 0h12.91v1.594h-12.91zm-67.91 1.598 1.873 6.691-5.619-3.883zm59.8 17.93 2.676 2.543-6.154 2.809zm5.486 6.154 2.145 2.273-7.764 2.006z" stroke-width="1.01"/></svg>
