<svg version="1.1" viewBox="0 0 128 128" xmlns="http://www.w3.org/2000/svg"><path d="m21.21 8.76c-1.926 1.148-1.244 3.162-1.619 4.83h-0.001953c-1.08 0.01-2.15-4.69e-4 -3.23 0.01953-1.89 0.03-2.789 0.7999-2.939 2.67-0.75 9.12-1.479 18.23-2.209 27.35-0.94 11.69-1.881 23.38-2.811 35.07-0.9 11.37-1.791 22.73-2.701 34.11-0.1 1.29-0.2588 2.569-0.2988 3.859-0.05 1.8 0.9305 2.789 2.73 2.869 0.27 0.01 0.5386 0 0.8086 0 36.49 0.01 72.99 0.00125 109.5 0.03125 1.52 0 2.76-0.2806 3.58-1.641v-4.199c-0.31-2.52-0.7002-5.04-0.9102-7.58-1.2-14.2-2.359-28.39-3.529-42.59l-1.92-23.3c-0.34-4.07-0.6515-8.139-1.021-12.21-0.29-3.16-0.6783-6.311-0.9883-9.471-0.07-0.79 0.09-1.61 0-2.4-0.2-1.73-1.151-2.55-2.891-2.58-1.18-0.02-2.371-0.009531-3.551-0.01953-0.1582-1.687 0.06748-3.483-1.34-4.82h-84.64zm65.04 34.88c0.4687 0.04625 0.9318 0.2981 1.342 0.7031 2.72 2.67 5.41 5.37 8.1 8.08 0.75 0.75 0.9104 1.659 0.1504 2.439-0.83 0.85-1.719 0.6501-2.529-0.1699-2.29-2.32-4.601-4.63-7.311-7.35-2.39 2.55-4.66 4.97-6.92 7.4-0.77 0.83-1.641 1.119-2.541 0.3789-0.98-0.8-0.7185-1.859 0.02148-2.629 2.72-2.82 5.499-5.59 8.309-8.32 0.435-0.42 0.9102-0.5795 1.379-0.5332zm-49.39 10.64c0.9517-0.02064 1.599 0.817 1.625 2.252 0.09 4.63 0.959 9.101 2.959 13.28 3.32 6.91 8.111 12.17 15.94 14.02 6.21 1.47 11.56-0.3691 16.42-4.119 5.61-4.33 8.599-10.27 10.05-17.04 0.45-2.11 0.5209-4.311 0.7109-6.471 0.09-1.05 0.2196-1.958 1.6-1.898 1.24 0.05 1.78 0.7789 1.74 1.879-0.45 11.87-4.661 21.78-15.12 28.29-3.45 2.15-7.309 3.079-11.29 3.109-9.04-0.22-15.6-4.591-20.5-11.8-3.9-5.77-5.661-12.24-5.881-19.16-0.04-1.04 0.1503-1.969 1.32-2.279 0.1475-0.03875 0.2898-0.05955 0.4258-0.0625z"/></svg>
