<svg version="1.1" viewBox="0 0 128 128" xmlns="http://www.w3.org/2000/svg"><path d="m11.7 25.8c-6.5 0-11.7 5.2-11.7 11.6v40c0 6.4 5.199 11.7 11.7 11.7h49.6l22.3 13.1-4.699-13.1h37.5c6.4 0 11.7-5.199 11.7-11.7v-40c-0.1-6.4-5.299-11.6-11.8-11.6h-104.6zm44.04 7.158c2.434-0.1222 4.855 1.204 3.955 6.041-3.9 9.5-7.699 29.6-6.699 40.6-2.7 8.3-9 0.4004-9 0.4004s-6.9-9.1-8.5-16c-1.6-6.8-2-3.699-2-3.699s-5.499 12.4-11.2 20.3c-5.7 7.9-8.5-3.9-8.5-3.9-2-2.4-7.701-37.3-7.701-37.3 3.2-8.9 8.701-1.6 8.701-1.6l5.5 28.4s8.498-17.4 11.4-21.9c2.8-4.5 7.702-3.202 8.102 1.398 0.4 4.7 5.1 17.4 5.1 17.4 0.4-13.4 5.899-26.2 6.699-28.2 0.35-0.875 2.251-1.846 4.145-1.941zm52.74 5.324c3.46 0.1816 7.225 1.991 10.41 7.316 6.9 15.7-4.601 28.7-7.201 29.9s-12.3 7.9-19.2-7.1c-4.3-15.1 5.301-26.2 5.301-26.2s4.921-4.219 10.69-3.916zm-31.87 0.06836c3.442 0.1992 7.191 2.023 10.38 7.348 6.9 15.6-4.5 28.6-7.1 29.8-2.6 1.2-12.3 7.9-19.2-7.1-4.3-15.1 5.301-26.2 5.301-26.2s4.884-4.18 10.62-3.848zm-0.375 8.529c-2.386 0.00293-6.371 1.631-8.246 10.82 0 5.9 1.4 9.501 3.6 10.8 4.1 1.2 8.9-4.299 8.9-10.2 0.3-4.1 0.4992-9.2-3.801-11.4-0.1438-0.0125-0.2941-0.01973-0.4531-0.01953zm31.9 0c-2.386 0.00293-6.369 1.631-8.244 10.82 0 5.9 1.4 9.501 3.6 10.8 4.1 1.2 8.9-4.299 8.9-10.2 0.2-4.1 0.3992-9.2-3.801-11.4-0.1438-0.0125-0.296-0.01973-0.4551-0.01953z"/></svg>
