<svg version="1.1" viewBox="0 0 128 128" xmlns="http://www.w3.org/2000/svg"><path d="m95.43 0c-4.932 3.315-9.21 7.609-12.6 12.48-3.279 4.849-6.13 10.39-6.066 16.39 0.02071 5.845 2.263 11.38 4.841 16.53 2.705 5.799 5.426 11.61 7.639 17.62 2.859 7.712 4.194 16.03 3.434 24.24 6.532-8.434 13.46-16.78 17.72-26.66 2.699-6.3 5.101-12.87 5.595-19.76 0.9622-11.03-2.39-22.42-9.413-31.01-3.126-3.873-6.927-7.188-11.14-9.827zm-65.27 24.83c-6.16 0.04883-12.32 1.217-18.04 3.516-0.5953 8.673 1.298 17.48 5.194 25.24 3.996 7.984 10.68 14.67 18.92 18.22 6.217 2.709 12.96 3.85 19.67 4.543 4.235 0.4763 8.482 1.021 12.6 2.155-3.5 6.253-8.58 11.59-11.26 18.3-2.307 6.043-2.113 12.69-1.309 19.01 0.5677 4.107 1.511 8.149 2.432 12.19 9.904-2.06 19.02-8.024 24.5-16.57 3.074-4.729 5.09-10.14 5.861-15.73 0.1053-1.122 0.246-2.663 0.3286-3.947 0.588-7.563-0.1252-15.25-2.222-22.54-1.352-4.628-3.285-9.065-5.372-13.4-9.687-18.68-30.25-31.15-51.31-30.98z"/></svg>
